<?xml version="1.0" encoding="UTF-8"?>
<svg id="Camada_1" xmlns="http://www.w3.org/2000/svg" version="1.1" viewBox="0 0 100 100">
  <!-- Generator: Adobe Illustrator 29.0.0, SVG Export Plug-In . SVG Version: 2.1.0 Build 186)  -->
  <defs>
    <style>
      .st0 {
        fill: #d26969;
      }

      .st1 {
        fill: #f9f9f9;
      }
    </style>
  </defs>
  <circle class="st0" cx="50" cy="50" r="48.6"/>
  <path class="st1" d="M24.1,56.9c4.1,8.5,13.9,20.9,36.3,22.3,2.4.1,4.5.4,6.5.8,2.9.1,5.7-.3,6.5-3.6.3-1.6-.2-8.6,0-9.2.4-.8,4-.7,4.5-3.1.3-1.6-3.1-6.4-3.9-8.2-2.5-5.8-.2-11-1.7-17.2-3.1-13.5-13.2-19.9-26.7-18.5-17.8,1.8-27.7,19-22,35.5.1.5.3.8.5,1.3Z"/>
</svg>