<?xml version="1.0" encoding="UTF-8"?>
<svg id="Camada_1" xmlns="http://www.w3.org/2000/svg" version="1.1" xmlns:xlink="http://www.w3.org/1999/xlink" viewBox="0 0 100 100">
  <!-- Generator: Adobe Illustrator 29.5.0, SVG Export Plug-In . SVG Version: 2.1.0 Build 137)  -->
  <defs>
    <style>
      .st0 {
        fill: url(#Gradiente_sem_nome_421);
      }

      .st1 {
        fill: url(#Gradiente_sem_nome_42);
      }

      .st2, .st3 {
        fill: none;
        stroke: #fff;
        stroke-miterlimit: 10;
      }

      .st4 {
        fill: url(#Gradiente_sem_nome_70);
      }

      .st5 {
        fill: url(#Gradiente_sem_nome_60);
      }

      .st3 {
        stroke-width: .25px;
      }
    </style>
    <radialGradient id="Gradiente_sem_nome_42" data-name="Gradiente sem nome 42" cx="12.06" cy="3.83" fx="12.06" fy="3.83" r="86.73" gradientTransform="translate(7.06 -8.81) rotate(40.98) scale(1 1.64)" gradientUnits="userSpaceOnUse">
      <stop offset="0" stop-color="#fff"/>
      <stop offset=".48" stop-color="#f5f5f5" stop-opacity="0"/>
      <stop offset="1" stop-color="#f5f5f5" stop-opacity="0"/>
    </radialGradient>
    <radialGradient id="Gradiente_sem_nome_421" data-name="Gradiente sem nome 42" cx="102.06" cy="99.05" fx="102.06" fy="99.05" r="112.93" gradientTransform="translate(168.56 -105.2) rotate(46.4) scale(1 1.91)" xlink:href="#Gradiente_sem_nome_42"/>
    <radialGradient id="Gradiente_sem_nome_60" data-name="Gradiente sem nome 60" cx="50.15" cy="49.74" fx="50.15" fy="49.74" r="58.96" gradientUnits="userSpaceOnUse">
      <stop offset="0" stop-color="#fff" stop-opacity=".3"/>
      <stop offset=".66" stop-color="#f5f5f5" stop-opacity="0"/>
      <stop offset="1" stop-color="#f5f5f5"/>
    </radialGradient>
    <radialGradient id="Gradiente_sem_nome_70" data-name="Gradiente sem nome 70" cx="28.62" cy="78.05" fx="28.62" fy="78.05" r="94.67" gradientUnits="userSpaceOnUse">
      <stop offset="0" stop-color="#f5f5f5" stop-opacity=".5"/>
      <stop offset=".85" stop-color="#fff"/>
    </radialGradient>
  </defs>
  <circle class="st1" cx="50" cy="50" r="48.6"/>
  <circle class="st0" cx="50" cy="50" r="48.6"/>
  <circle class="st5" cx="50" cy="50" r="48.6"/>
  <circle class="st3" cx="50" cy="50" r="48.6"/>
  <g>
    <ellipse class="st4" cx="50" cy="35.72" rx="13.58" ry="15.47"/>
    <path class="st4" d="M43.87,54.91h12.25c9.16,0,16.6,7.44,16.6,16.6v.09c0,3.39-2.76,6.15-6.15,6.15h-33.14c-3.39,0-6.15-2.76-6.15-6.15v-.09c0-9.16,7.44-16.6,16.6-16.6Z"/>
  </g>
  <g>
    <ellipse class="st2" cx="50" cy="35.72" rx="13.58" ry="15.47"/>
    <path class="st2" d="M43.87,54.91h12.25c9.16,0,16.6,7.44,16.6,16.6v.09c0,3.39-2.76,6.15-6.15,6.15h-33.14c-3.39,0-6.15-2.76-6.15-6.15v-.09c0-9.16,7.44-16.6,16.6-16.6Z"/>
  </g>
</svg>