<?xml version="1.0" encoding="UTF-8"?>
<svg id="Camada_1" xmlns="http://www.w3.org/2000/svg" version="1.1" viewBox="0 0 100 100">
  <!-- Generator: Adobe Illustrator 29.0.0, SVG Export Plug-In . SVG Version: 2.1.0 Build 186)  -->
  <defs>
    <style>
      .st0 {
        fill: #fff;
      }

      .st1 {
        fill: #dc625c;
      }
    </style>
  </defs>
  <circle class="st1" cx="50" cy="50" r="48.6"/>
  <path id="behance" class="st0" d="M36.6,29.3c2,0,3.8.2,5.4.5s3,.9,4.2,1.7,2.1,1.8,2.7,3.2,1,2.9,1,4.9-.5,3.8-1.4,5.2-2.4,2.5-4.2,3.4c2.6.7,4.5,2,5.7,3.9s1.9,4.1,1.9,6.6-.4,3.9-1.2,5.4-1.9,2.8-3.3,3.7c-1.4,1-2.9,1.7-4.7,2.1-1.8.5-3.6.7-5.4.7h-20.1V29.3h19.5ZM35.4,46.1c1.6,0,3-.4,4-1.2,1-.8,1.6-2,1.6-3.8,0-1-.2-1.8-.5-2.4s-.8-1.1-1.4-1.5c-.6-.3-1.2-.6-2-.7-.8-.1-1.6-.2-2.4-.2h-8.5v9.7h9.2s0,0,0,0ZM35.9,63.6c.9,0,1.7,0,2.6-.3.8-.2,1.5-.5,2.1-.9.6-.4,1.1-1,1.5-1.7.4-.7.6-1.6.6-2.7,0-2.1-.6-3.6-1.8-4.6-1.2-.9-2.8-1.4-4.8-1.4h-9.9v11.4h9.7s0,0,0,0ZM63.3,62.8c1.2,1.2,3,1.8,5.3,1.8s3.1-.4,4.3-1.2,1.9-1.7,2.2-2.6h7.3c-1.2,3.6-2.9,6.2-5.3,7.7-2.4,1.5-5.3,2.3-8.7,2.3s-4.5-.4-6.4-1.1-3.5-1.8-4.8-3.2-2.3-3.1-3-5-1.1-4.1-1.1-6.4.4-4.3,1.1-6.3,1.8-3.6,3.1-5,3-2.5,4.8-3.3,4-1.2,6.2-1.2,4.8.5,6.7,1.5c1.9,1,3.5,2.3,4.7,4,1.2,1.7,2.1,3.6,2.6,5.7s.7,4.4.6,6.7h-21.6c.1,2.7.8,4.6,2,5.8h0ZM72.6,47c-1-1.1-2.5-1.6-4.5-1.6s-2.4.2-3.3.7c-.9.4-1.6,1-2.1,1.7-.5.7-.9,1.4-1.1,2.1-.2.7-.3,1.4-.4,2h13.4c-.4-2.1-1.1-3.7-2.1-4.8h0ZM59.8,31.4h16.8v4.6h-16.8v-4.6Z"/>
</svg>