<?xml version="1.0" encoding="UTF-8"?>
<svg id="Camada_1" xmlns="http://www.w3.org/2000/svg" version="1.1" viewBox="0 0 1024 1024">
  <!-- Generator: Adobe Illustrator 29.0.0, SVG Export Plug-In . SVG Version: 2.1.0 Build 186)  -->
  <defs>
    <style>
      .st0 {
        fill: #fff;
      }
    </style>
  </defs>
  <path class="st0" d="M242,903.9c0,55.6,45.9,101.1,102.2,101.1h335.5c56.3,0,102.2-45.4,102.2-101.1v-34.6H242v34.6ZM449.2,902.3h125.4c22,0,40,17.8,40,39.8s-17.8,39.8-40,39.8h-125.4c-22,0-40-17.8-40-39.7,0-21.9,18-39.8,40-39.8Z"/>
  <path class="st0" d="M449.2,953.1h125.4c6.1,0,11.2-4.9,11.2-11s-5-11-11.2-11h-125.4c-6.1,0-11.2,4.8-11.2,11,.1,6,5,11,11.2,11Z"/>
  <path class="st0" d="M242,179.9h539.9v660.5H242V179.9Z"/>
  <path class="st0" d="M679.7,19h-335.4c-56.3,0-102.2,45.4-102.2,101.1v31.2h539.9v-31.2c0-55.8-46-101.1-102.3-101.1ZM512,126.8c-22.9,0-41.5-18.5-41.5-41.3s18.6-41.4,41.5-41.4,41.6,18.5,41.6,41.4c-.1,22.7-18.7,41.3-41.6,41.3Z"/>
  <path class="st0" d="M512,72.9c-7,0-12.8,5.6-12.8,12.6s5.7,12.6,12.8,12.6,12.8-5.6,12.8-12.6-5.8-12.6-12.8-12.6Z"/>
</svg>