<?xml version="1.0" encoding="UTF-8"?>
<svg id="Camada_1" xmlns="http://www.w3.org/2000/svg" version="1.1" xmlns:xlink="http://www.w3.org/1999/xlink" viewBox="0 0 100 100">
  <!-- Generator: Adobe Illustrator 29.5.0, SVG Export Plug-In . SVG Version: 2.1.0 Build 137)  -->
  <defs>
    <style>
      .st0 {
        fill: url(#Gradiente_sem_nome_421);
      }

      .st1 {
        fill: url(#Gradiente_sem_nome_42);
      }

      .st2, .st3 {
        fill: none;
        stroke: #fff;
        stroke-miterlimit: 10;
      }

      .st4 {
        fill: url(#Gradiente_sem_nome_70);
      }

      .st5 {
        fill: url(#Gradiente_sem_nome_60);
      }

      .st3 {
        stroke-width: .25px;
      }
    </style>
    <radialGradient id="Gradiente_sem_nome_42" data-name="Gradiente sem nome 42" cx="12.06" cy="3.83" fx="12.06" fy="3.83" r="86.73" gradientTransform="translate(7.06 -8.81) rotate(40.98) scale(1 1.64)" gradientUnits="userSpaceOnUse">
      <stop offset="0" stop-color="#fff"/>
      <stop offset=".48" stop-color="#f5f5f5" stop-opacity="0"/>
      <stop offset="1" stop-color="#f5f5f5" stop-opacity="0"/>
    </radialGradient>
    <radialGradient id="Gradiente_sem_nome_421" data-name="Gradiente sem nome 42" cx="102.06" cy="99.05" fx="102.06" fy="99.05" r="112.93" gradientTransform="translate(168.56 -105.2) rotate(46.4) scale(1 1.91)" xlink:href="#Gradiente_sem_nome_42"/>
    <radialGradient id="Gradiente_sem_nome_60" data-name="Gradiente sem nome 60" cx="50.15" cy="49.74" fx="50.15" fy="49.74" r="58.96" gradientUnits="userSpaceOnUse">
      <stop offset="0" stop-color="#fff" stop-opacity=".3"/>
      <stop offset=".66" stop-color="#f5f5f5" stop-opacity="0"/>
      <stop offset="1" stop-color="#f5f5f5"/>
    </radialGradient>
    <radialGradient id="Gradiente_sem_nome_70" data-name="Gradiente sem nome 70" cx="10" cy="77.17" fx="10" fy="77.17" r="162.01" gradientUnits="userSpaceOnUse">
      <stop offset="0" stop-color="#f5f5f5" stop-opacity=".5"/>
      <stop offset=".85" stop-color="#fff"/>
    </radialGradient>
  </defs>
  <circle class="st1" cx="50" cy="50" r="48.6"/>
  <circle class="st0" cx="50" cy="50" r="48.6"/>
  <circle class="st5" cx="50" cy="50" r="48.6"/>
  <circle class="st3" cx="50" cy="50" r="48.6"/>
  <g>
    <path class="st4" d="M58.16,53.45c-4.51,4.68-11.82,4.68-16.33,0l-20.84-21.64c-.58,1.03-.91,2.22-.91,3.48v31.68c0,3.84,3.03,6.98,6.73,6.98h46.38c3.7,0,6.73-3.14,6.73-6.98v-31.68c0-1.27-.34-2.46-.91-3.48l-20.84,21.64Z"/>
    <path class="st4" d="M71.2,26.03H28.8c-2.09,0-3.94,1.1-5.05,2.76l19.09,19.81c3.96,4.11,10.37,4.11,14.32,0l19.08-19.81c-1.11-1.66-2.96-2.76-5.05-2.76Z"/>
  </g>
  <g>
    <path class="st2" d="M58.16,53.45c-4.51,4.68-11.82,4.68-16.33,0l-20.84-21.64c-.58,1.03-.91,2.22-.91,3.48v31.68c0,3.84,3.03,6.98,6.73,6.98h46.38c3.7,0,6.73-3.14,6.73-6.98v-31.68c0-1.27-.34-2.46-.91-3.48l-20.84,21.64Z"/>
    <path class="st2" d="M71.2,26.03H28.8c-2.09,0-3.94,1.1-5.05,2.76l19.09,19.81c3.96,4.11,10.37,4.11,14.32,0l19.08-19.81c-1.11-1.66-2.96-2.76-5.05-2.76Z"/>
  </g>
</svg>