<?xml version="1.0" encoding="UTF-8"?>
<svg id="Camada_1" xmlns="http://www.w3.org/2000/svg" version="1.1" viewBox="0 0 100 100">
  <!-- Generator: Adobe Illustrator 29.0.0, SVG Export Plug-In . SVG Version: 2.1.0 Build 186)  -->
  <defs>
    <style>
      .st0 {
        fill: #f9f9f9;
      }

      .st1 {
        fill: #dc625c;
      }
    </style>
  </defs>
  <circle class="st1" cx="50" cy="50" r="48.6"/>
  <path class="st0" d="M98.2,31.1h-.2c-.5-.7-.5-2.7,0-3.4h.2v3.4Z"/>
  <g>
    <path class="st0" d="M83,36v2.3c-.6,8.3-9.2,5.4-14.9,5.9-3-.6-5-3.2-4.6-6.3s.6-1.9.5-2c-1.2-.5-2.4-1-3.7-1.4-7.3-2.5-14.4-2.5-21.7.2s-2.6,1-2.8,1.2.3,1.7.4,2.1c.3,3.3-1.9,6.1-5.2,6.3s-6.3.2-8.6,0c-7.4-.6-6.5-9.6-3.2-14.2,7-9.9,24.5-13.4,35.8-12.2,9.2,1,27.4,7,28.1,18.2h0Z"/>
    <path class="st0" d="M72.6,54.5c-2.1-3.7-6.6-8.4-9.8-11.4,0,0-1.1-.8-1.2-.8h-4.5v-3.2s-.5-.9-.6-1c-1-.9-2.7-.6-3.2.7l-.2.8v2.7h-6.2v-2.7s-.2-.7-.2-.8c-.6-1.3-2.1-1.6-3.2-.7,0,0-.6.9-.6,1v3.2h-4.5c0,0-1,.7-1.2.8-4.1,3.9-9.4,9.6-11.5,14.9-2,5.1-2.5,12.5-2,18,.1,1.3.6,2.3,2,2.4,16.5,0,32.9,0,49.3,0,1-.4,1.3-1.2,1.4-2.1.6-7.1,0-15.4-3.7-21.6h-.1ZM58.9,65.9c-3.6,6.3-12.5,7-17.1,1.4-5.3-6.5-1-16.2,7.2-16.9,8.3-.7,13.9,8.3,9.8,15.5h0Z"/>
    <path class="st0" d="M48.9,54.3c6.4-.9,10.1,6.9,5.3,11.2-5,4.5-12.7-1-10.1-7.3s2.8-3.6,4.8-3.9Z"/>
  </g>
</svg>