<?xml version="1.0" encoding="UTF-8"?>
<svg id="Camada_1" xmlns="http://www.w3.org/2000/svg" version="1.1" viewBox="0 0 1024 1024">
  <!-- Generator: Adobe Illustrator 29.0.0, SVG Export Plug-In . SVG Version: 2.1.0 Build 186)  -->
  <defs>
    <style>
      .st0 {
        fill: #fff;
      }
    </style>
  </defs>
  <path class="st0" d="M912.1,160H111.9c-21.3,0-40.4,9.2-53.9,23.7l435.3,299.5c16.1,11.1,37.8,11.1,53.9.2l426.3-290c-13.1-20-35.7-33.3-61.4-33.3h0Z"/>
  <path class="st0" d="M520.4,583.6c-27.5,0-55.1-8.3-79.1-24.8L38.1,281.4v508.8c0,40.6,33.1,73.8,73.8,73.8h800.2c40.6,0,73.8-33.1,73.8-73.8v-494.2l-386.9,263.2c-23.9,16.3-51.2,24.4-78.5,24.4h0Z"/>
</svg>