<?xml version="1.0" encoding="UTF-8"?>
<svg id="Camada_1" xmlns="http://www.w3.org/2000/svg" version="1.1" viewBox="0 0 100 63.3">
  <!-- Generator: Adobe Illustrator 29.5.1, SVG Export Plug-In . SVG Version: 2.1.0 Build 141)  -->
  <defs>
    <style>
      .st0 {
        fill: #edf3ff;
      }
    </style>
  </defs>
  <rect class="st0" x="52.7" y="28.3" width="44.8" height="7.4"/>
  <rect class="st0" x="52.7" y="15.5" width="44.8" height="7.4"/>
  <rect class="st0" x="2.5" y="53.8" width="95" height="7.4"/>
  <rect class="st0" x="2.5" y="41.1" width="95" height="7.4"/>
  <rect class="st0" x="52.7" y="2.8" width="44.8" height="7.4"/>
  <path class="st0" d="M47.3,2.8H2.5v32.9h44.8V2.8ZM16.7,24.2l-2,1.7.6,2.5s0,.2-.1.3-.2,0-.3,0l-2.2-1.3-2.2,1.3h-.3c-.1,0-.1-.2-.1-.3l.6-2.5-2-1.7c-.1,0-.1-.2-.1-.3s.1-.2.2-.2l2.6-.2,1-2.4s.1-.2.2-.2h0c.1,0,.2,0,.2.2l1,2.4,2.6.2c.1,0,.2,0,.2.2.2.2.2.3.1.4h0v-.1ZM16.7,12.3l-2,1.7.6,2.5s0,.2-.1.3-.2,0-.3,0l-2.2-1.3-2.2,1.3h-.3c-.1,0-.1-.2-.1-.3l.6-2.5-2-1.7c-.1-.1-.1-.2-.1-.3s.1-.2.2-.2l2.6-.2,1-2.4c0-.1.1-.2.2-.2h0c.1,0,.2.1.2.2l1,2.4,2.6.2c.1,0,.2.1.2.2.2.2.2.3.1.4h0s0-.1,0-.1ZM28.9,24.2l-2,1.7.6,2.5s0,.2-.1.3-.2,0-.3,0l-2.2-1.3-2.2,1.3h-.3c-.1,0-.1-.2-.1-.3l.6-2.5-2-1.7c-.1,0-.1-.2-.1-.3s.1-.2.2-.2l2.6-.2,1-2.4s.1-.2.2-.2h0c.1,0,.2,0,.2.2l1,2.4,2.6.2c.1,0,.2,0,.2.2.2.2.2.3,0,.4h0s.1-.1.1-.1ZM28.9,12.3l-2,1.7.6,2.5s0,.2-.1.3-.2,0-.3,0l-2.2-1.3-2.2,1.3h-.3c-.1,0-.1-.2-.1-.3l.6-2.5-2-1.7c-.1-.1-.1-.2-.1-.3s.1-.2.2-.2l2.6-.2,1-2.4c0-.1.1-.2.2-.2h0c.1,0,.2.1.2.2l1,2.4,2.6.2c.1,0,.2.1.2.2.2.2.2.3,0,.4h0s.1-.1.1-.1ZM41,24.2l-2,1.7.6,2.5v.3h-.3l-2.2-1.3-2.2,1.3h-.2v-.3l.6-2.5-2-1.7v-.2s0-.2.2-.2l2.6-.2,1-2.4c0-.2.4-.2.5,0l1,2.4,2.6.2s.2,0,.2.2v.3h-.4s0-.1,0-.1ZM41,12.3l-2,1.7.6,2.5v.3h-.3l-2.2-1.3-2.2,1.3h-.2v-.3l.6-2.4-2-1.7v-.3c0-.1,0-.2.2-.2l2.6-.2,1-2.4c0-.2.4-.2.5,0l1,2.4,2.6.2s.2.1.2.2v.3h-.4s0-.1,0-.1Z"/>
</svg>