<?xml version="1.0" encoding="UTF-8"?>
<svg id="Camada_1" xmlns="http://www.w3.org/2000/svg" version="1.1" viewBox="0 0 100 100">
  <!-- Generator: Adobe Illustrator 29.0.0, SVG Export Plug-In . SVG Version: 2.1.0 Build 186)  -->
  <defs>
    <style>
      .st0 {
        fill: #f9f9f9;
      }

      .st1 {
        fill: #dc625c;
      }
    </style>
  </defs>
  <circle class="st1" cx="50" cy="50" r="48.6"/>
  <path class="st0" d="M83.4,40.2c-2.3-2.3-18.2-1-21.6-3.6-3.9-2.9-6.2-14.5-9.3-18.6-.7-.9-2-1.7-3.2-1.4-.7.2-1.4.8-1.8,1.4-3,4.1-5.5,16.1-9.5,18.7-3.3,2.2-15.4,1.2-19.7,2.6-1.8.6-3.2,2.5-2.1,4.3.8,1.4,3.5,3.2,4.8,4.4,2.5,2.2,9.1,6.8,10.4,9.4,2,3.8-3.6,16.3-3.8,20.9,0,1.6,1.1,3,2.7,3.1,2.9.2,14.6-8.7,18.9-9.4,4.1-.6,14.4,7.1,18.9,8.9,2.1.8,4.2,0,4.4-2.4.3-4.5-5.5-16.4-4.1-20.5,1.1-3.1,8.6-8.2,11.4-10.7,1.9-1.6,6.5-4.4,3.6-7.2h0Z"/>
</svg>