<?xml version="1.0" encoding="UTF-8"?>
<svg id="Camada_1" xmlns="http://www.w3.org/2000/svg" version="1.1" xmlns:xlink="http://www.w3.org/1999/xlink" viewBox="0 0 100 100">
  <!-- Generator: Adobe Illustrator 29.5.0, SVG Export Plug-In . SVG Version: 2.1.0 Build 137)  -->
  <defs>
    <style>
      .st0 {
        fill: url(#Gradiente_sem_nome_421);
      }

      .st1 {
        fill: url(#Gradiente_sem_nome_42);
      }

      .st2 {
        fill: #fff;
      }

      .st3 {
        fill: url(#Gradiente_sem_nome_70);
      }

      .st4 {
        fill: url(#Gradiente_sem_nome_60);
      }

      .st5 {
        fill: none;
        stroke: #fff;
        stroke-miterlimit: 10;
        stroke-width: .25px;
      }
    </style>
    <radialGradient id="Gradiente_sem_nome_42" data-name="Gradiente sem nome 42" cx="12.06" cy="3.83" fx="12.06" fy="3.83" r="86.73" gradientTransform="translate(7.06 -8.81) rotate(40.98) scale(1 1.64)" gradientUnits="userSpaceOnUse">
      <stop offset="0" stop-color="#fff"/>
      <stop offset=".48" stop-color="#f5f5f5" stop-opacity="0"/>
      <stop offset="1" stop-color="#f5f5f5" stop-opacity="0"/>
    </radialGradient>
    <radialGradient id="Gradiente_sem_nome_421" data-name="Gradiente sem nome 42" cx="102.06" cy="99.05" fx="102.06" fy="99.05" r="112.93" gradientTransform="translate(168.56 -105.2) rotate(46.4) scale(1 1.91)" xlink:href="#Gradiente_sem_nome_42"/>
    <radialGradient id="Gradiente_sem_nome_60" data-name="Gradiente sem nome 60" cx="50.15" cy="49.74" fx="50.15" fy="49.74" r="58.96" gradientUnits="userSpaceOnUse">
      <stop offset="0" stop-color="#fff" stop-opacity=".3"/>
      <stop offset=".66" stop-color="#f5f5f5" stop-opacity="0"/>
      <stop offset="1" stop-color="#f5f5f5"/>
    </radialGradient>
    <radialGradient id="Gradiente_sem_nome_70" data-name="Gradiente sem nome 70" cx="50" cy="49" fx="50" fy="49" r="46.95" gradientUnits="userSpaceOnUse">
      <stop offset="0" stop-color="#f5f5f5" stop-opacity=".5"/>
      <stop offset=".85" stop-color="#fff"/>
    </radialGradient>
  </defs>
  <circle class="st1" cx="50" cy="50" r="48.6"/>
  <circle class="st0" cx="50" cy="50" r="48.6"/>
  <circle class="st4" cx="50" cy="50" r="48.6"/>
  <circle class="st5" cx="50" cy="50" r="48.6"/>
  <path class="st3" d="M79.54,41.23c-2.04-2.04-16.13-.89-19.15-3.19-3.46-2.57-5.5-12.85-8.24-16.49-.62-.8-1.77-1.51-2.84-1.24-.62.18-1.24.71-1.6,1.24-2.66,3.63-4.88,14.27-8.42,16.58-2.93,1.95-13.65,1.06-17.46,2.3-1.6.53-2.84,2.22-1.86,3.81.71,1.24,3.1,2.84,4.25,3.9,2.22,1.95,8.07,6.03,9.22,8.33,1.77,3.37-3.19,14.45-3.37,18.53,0,1.42.98,2.66,2.39,2.75,2.57.18,12.94-7.71,16.75-8.33,3.63-.53,12.76,6.29,16.75,7.89,1.86.71,3.72,0,3.9-2.13.27-3.99-4.88-14.54-3.63-18.17.98-2.75,7.62-7.27,10.11-9.48,1.68-1.42,5.76-3.9,3.19-6.38h0v.09Z"/>
  <path class="st2" d="M49.78,21.25c.51,0,1.16.38,1.57.9,1.09,1.44,2.14,4.22,3.16,6.91,1.51,3.99,3.07,8.12,5.28,9.77,1.79,1.37,6.17,1.63,10.8,1.92,3.17.19,7.52.46,8.24,1.19l.39.39c.16.28.15.48.15.56-.06,1.05-1.74,2.36-2.85,3.23-.3.23-.58.45-.83.67-.64.57-1.56,1.3-2.63,2.14-3.93,3.1-7,5.63-7.75,7.77-.8,2.33.47,6.44,1.82,10.79.92,2.98,1.87,6.05,1.77,7.62-.1,1.22-.89,1.48-1.53,1.48-.32,0-.66-.07-1-.19-1.32-.53-3.32-1.71-5.44-2.97-4.18-2.47-8.5-5.02-11.25-5.02-.2,0-.39.01-.59.04-2.08.34-5.5,2.38-9.11,4.54-2.81,1.68-6.32,3.78-7.42,3.78h0c-.95-.06-1.46-.95-1.46-1.71.06-1.42.81-3.94,1.59-6.61,1.45-4.91,2.95-9.98,1.67-12.41-.93-1.87-4.16-4.41-7-6.65-1-.79-1.86-1.47-2.43-1.97-.39-.36-.9-.76-1.43-1.19-1-.8-2.25-1.79-2.65-2.5-.21-.35-.25-.7-.12-1.06.2-.55.77-1.05,1.44-1.28,1.52-.5,4.51-.64,7.4-.77,4.33-.2,8.42-.39,10.3-1.65,2.37-1.54,4.04-5.91,5.65-10.14,1.04-2.73,2.02-5.31,3.06-6.72.26-.38.69-.74,1.01-.83.07-.02.15-.03.23-.03M49.78,20.25c-.16,0-.31.02-.47.06-.62.18-1.24.71-1.6,1.24-2.66,3.63-4.88,14.27-8.42,16.58-2.93,1.95-13.65,1.06-17.46,2.3-1.6.53-2.84,2.22-1.86,3.81.71,1.24,3.1,2.84,4.25,3.9,2.22,1.95,8.07,6.03,9.22,8.33,1.77,3.37-3.19,14.45-3.37,18.53,0,1.42.98,2.66,2.39,2.75.03,0,.06,0,.09,0,2.71,0,12.9-7.72,16.66-8.34.14-.02.28-.03.43-.03,3.88,0,12.48,6.38,16.32,7.92.47.18.93.27,1.37.27,1.32,0,2.4-.8,2.53-2.39.27-3.99-4.88-14.54-3.63-18.17.98-2.75,7.62-7.27,10.11-9.48,1.68-1.42,5.76-3.9,3.19-6.38v.09c-2.04-2.04-16.13-.89-19.15-3.19-3.46-2.57-5.5-12.85-8.24-16.49-.53-.68-1.45-1.3-2.37-1.3h0Z"/>
</svg>