<?xml version="1.0" encoding="UTF-8"?>
<svg id="Camada_1" xmlns="http://www.w3.org/2000/svg" version="1.1" viewBox="0 0 1024 1024">
  <!-- Generator: Adobe Illustrator 29.0.0, SVG Export Plug-In . SVG Version: 2.1.0 Build 186)  -->
  <defs>
    <style>
      .st0 {
        fill: #fff;
      }
    </style>
  </defs>
  <path class="st0" d="M1007.9,74.6c-2.4-9.9-10.1-17.7-20-20.1-25.5-6.7-67.3,17.7-114.9,66.9l-1.5,1.5c-19.5,20.2-41.8,43.2-64.8,66.5H98c-39.9,0-72.2,32.3-72.2,72.2v460.2c0,39.9,32.3,72.2,72.2,72.2h230.7c.5,16.4-5.1,32.4-15.6,45h-36.6c-11.4,0-20.7,9.3-20.7,20.7v29.7c0,27.8,22.6,50.3,50.4,50.4h276.9c27.8,0,50.3-22.6,50.4-50.4v-29.7c0-11.4-9.3-20.7-20.7-20.7h-38.7c-10.5-12.6-16-28.6-15.5-45h230.7c39.9,0,72.2-32.4,72.2-72.2v-450.2c26.3-26.3,52.5-51.6,73.9-72.3,52.5-50.7,79.6-97.4,72.4-124.8h0ZM98,217.3h681c-51.7,51.2-103.4,98.5-133.3,113.4-41.4,20.7-76.6,40.4-86.3,68.5h0c-8.7,2.2-16.9,6-24.2,11.2-18.5,13.1-23.1,34.1-27.5,54.4-6,27.4-10.7,49.1-45.2,55.8h0c-4.7.9-8.6,4.1-10.3,8.6-1.7,4.4-1.1,9.5,1.7,13.3,21.2,27.2,54.2,42.5,88.6,41.1,6.8,0,13.5-.5,20.2-1.4,46.5-6.5,85.5-34.5,99.2-71.3.6-1.7,1.1-3.3,1.7-4.9,29.3-8.6,49.5-44.6,70.7-87,13.7-27.4,54.6-73.1,99.6-119.3v376.8s-780,0-780,0v-415c0-24.5,19.8-44.4,44.3-44.4h0ZM564.3,426.7l72.1,72.2c-.3.8-.5,1.7-.8,2.5-10.2,27.4-40.4,48.4-76.9,53.5h0c-23.6,4.2-47.9-.9-67.8-14.2,32.1-15.6,38.8-46.3,44-69.7,3.6-16.5,6.8-30.8,16.4-37.6h0c4-2.9,8.4-5.1,13.1-6.6h0ZM656.2,479.1l-70.6-70.6c4-8.7,10.3-16.1,18.3-21.4,21.7,27.3,45.9,52.5,72.3,75.3-5,7.3-12,13-20.1,16.6h0ZM691.8,439.2c-23.4-20.5-45-43-64.4-67.3,8.3-4.8,17.6-9.7,27.8-14.8,18.9,15.8,36.7,32.8,53.3,51-5.8,11.5-11.3,21.9-16.6,31h0ZM605.6,889.5c0,6-2.4,11.7-6.6,15.9-4.2,4.2-10,6.6-15.9,6.6h-276.9c-12.4,0-22.5-10.1-22.5-22.5v-22.5h321.9v22.5ZM541.1,839.1h-194.9c7.2-13.9,10.7-29.4,10.4-45h174.2c-.4,15.6,3.2,31.1,10.4,45h0ZM789.3,766.2H98c-24.5,0-44.3-19.9-44.3-44.4v-17.3h780v17.3c0,24.5-19.8,44.3-44.4,44.3h0ZM916.1,179.4c-78.3,75.6-156.5,152.8-192.7,204.1h0c-13.6-14.6-28-28.4-43.1-41.4,56.6-39.6,144.7-130.8,211.2-199.7l1.5-1.5c50.7-52.5,81.6-61.8,87.8-59.3,3,6.7-7,42.1-64.8,98h0ZM191.1,497.3l-11.7,92h0c-.8,6,1.1,12.1,5.1,16.7,4,4.6,9.8,7.2,15.9,7.3,2.8,0,5.7-.6,8.3-1.7l88.4-37.5,84.4,37.1h0c7,3,15.1,2.1,21.3-2.5,6.1-4.6,9.3-12.1,8.3-19.7l-11.7-91.7,55-67.2c4.6-5.7,6-13.3,3.7-20.2-2.3-6.9-8-12.2-15.1-13.9l-85.1-20.7-44.2-78.8c-3.8-6.7-10.9-10.8-18.5-10.8s-14.7,4.2-18.5,10.8l-44.2,78.8-85.1,20.7h0c-7.1,1.7-12.8,7-15.1,13.9-2.3,6.9-.9,14.6,3.7,20.2l55,67.2ZM241.9,401.7c5.7-1.3,10.6-5.1,13.5-10.2l39.9-71,39.9,71c2.8,5.2,7.7,8.9,13.5,10.2l77.6,18.9-50.2,61.2h0c-3.7,4.5-5.4,10.4-4.6,16.2l10.6,83-76.3-33.6h0c-5.3-2.4-11.5-2.4-16.8-.1l-80.4,34.1,10.6-83.3h0c.8-5.8-.9-11.6-4.6-16.1l-50.2-61.3,77.7-18.9Z"/>
</svg>