<?xml version="1.0" encoding="UTF-8"?>
<svg id="Camada_1" xmlns="http://www.w3.org/2000/svg" version="1.1" viewBox="0 0 1024 1024">
  <!-- Generator: Adobe Illustrator 29.0.0, SVG Export Plug-In . SVG Version: 2.1.0 Build 186)  -->
  <defs>
    <style>
      .st0 {
        fill: #fff;
      }
    </style>
  </defs>
  <path class="st0" d="M693.1,475.2v-27.7c0-4.8-2-9.2-5.2-12.3-3.2-3.2-7.5-5.2-12.3-5.2s-8.7,1.7-11.8,4.5l-.6.6c-3.2,3.2-5.2,7.5-5.2,12.3v54.6c0,4.8,2,9.1,5.2,12.3,3.2,3.2,7.5,5.2,12.3,5.2s9.2-2,12.4-5.2,5.2-7.5,5.2-12.3v-26.9ZM512,669c22.9,0,43.7,9.4,58.8,24.4,15.1,15,24.4,35.8,24.4,58.8s-9.3,43.7-24.4,58.8h0c-15.1,15.1-35.9,24.4-58.8,24.4s-43.7-9.3-58.8-24.4h0c-15-15.1-24.3-35.9-24.3-58.8s9.3-43.8,24.4-58.8l1-.9c15-14.5,35.4-23.4,57.8-23.4h0ZM548.1,716.1c-9.2-9.2-21.9-14.9-36.1-14.9s-26.3,5.4-35.4,14.2l-.7.8c-9.2,9.2-14.9,22-14.9,36.1s5.7,26.9,14.9,36.1c9.2,9.2,22,14.9,36.1,14.9s26.9-5.7,36.1-14.9c9.2-9.2,14.9-22,14.9-36.1s-5.7-26.8-14.9-36.1ZM561.1,610.1c6,2.3,10.8,4.3,16.6,6.9l31-31c6.3-6.3,16.5-6.3,22.8,0l46.7,46.7c6.3,6.3,6.3,16.5,0,22.8l-31,31,3.7,8.2,3.2,8.4h43.8c8.9,0,16.1,7.2,16.1,16.1v66c0,8.9-7.2,16.1-16.1,16.1h-43.8c-2.3,6-4.3,10.8-6.9,16.6l14.7,14.7h208.7c19.1,0,36.5-7.8,49.1-20.5,12.6-12.6,20.5-30,20.5-49.1v-272.2h-214.8v11.2c0,13.7-5.6,26.1-14.6,35.1-9,9-21.4,14.6-35.1,14.6s-26.1-5.6-35.1-14.6c-9-9-14.6-21.4-14.6-35.1v-11.2h-227.8v11.2c0,13.7-5.6,26.1-14.6,35.1-9,9-21.4,14.6-35.1,14.6s-26.1-5.6-35.1-14.6c-9-9-14.6-21.4-14.6-35.1v-11.2H83.9v272.2c0,18.7,7.5,35.9,19.7,48.4l.8.7c12.6,12.6,30,20.5,49.1,20.5h208.7l14.7-14.7-3.7-8.2-3.2-8.4h-43.8c-8.9,0-16.1-7.2-16.1-16.1v-66c0-8.9,7.2-16.1,16.1-16.1h43.9l3.2-8.3,3.7-8.3-31-31c-6.3-6.3-6.3-16.5,0-22.8l46.7-46.7c6.3-6.3,16.5-6.3,22.8,0l31,31,8.3-3.7,8.3-3.2v-43.9c0-8.9,7.2-16.1,16.1-16.1h66c8.9,0,16.1,7.2,16.1,16.1v43.8h0ZM682.2,864.8c-.7,2.5-2.1,4.9-4.1,6.9l-46.7,46.7c-6.3,6.3-16.5,6.3-22.8,0l-31-31-8.2,3.7-8.4,3.2v43.8c0,8.9-7.2,16.1-16.1,16.1h-66c-8.9,0-16.1-7.2-16.1-16.1v-43.8c-6-2.3-10.8-4.3-16.6-6.9l-31,31c-6.3,6.3-16.5,6.3-22.8,0l-46.7-46.7c-2-2-3.4-4.4-4.1-6.9h-188.3c-28,0-53.5-11.4-71.9-29.9l-.9-1c-17.9-18.4-29-43.4-29-71v-272.2h-22.8c-8.9,0-16.1-7.2-16.1-16.1v-116.9c0-23.7,9.7-45.3,25.3-60.9,15.6-15.6,37.2-25.3,60.9-25.3h111.4v-64.8c0-37.7,15.4-71.9,40.2-96.7h0c24.8-24.9,59-40.2,96.7-40.2h329.2c37.7,0,71.9,15.4,96.7,40.2h0c24.8,24.9,40.1,59.1,40.1,96.8v64.8h111.4c23.7,0,45.3,9.7,60.9,25.3,15.6,15.6,25.3,37.2,25.3,60.9v116.9c0,8.9-7.2,16.1-16.1,16.1h-22.8v272.2c0,28-11.4,53.4-29.9,71.9-18.5,18.5-43.9,29.9-71.9,29.9h-188.3ZM557.2,643.1c-4.9-2.1-10-3.8-15.3-5.1-7.4-1.4-13-8-13-15.8v-39.7h-33.8v39.7c0,7.2-4.9,13.8-12.2,15.6-5.6,1.4-11,3.2-16.1,5.3-4.9,2-9.6,4.4-14.1,7-6.3,4.4-15.1,3.9-20.7-1.8l-28.1-28.1-23.9,23.9,28.1,28.1c5,5.1,6.2,13.2,2.4,19.6-2.9,4.8-5.5,9.9-7.6,15.1-2,4.9-3.7,10-5.1,15.3-1.4,7.4-8,13-15.8,13h-39.7v33.8h39.7c7.2,0,13.8,4.9,15.6,12.2,1.4,5.5,3.2,10.9,5.3,16.1,2,4.9,4.4,9.7,7,14.2,4.4,6.3,3.9,15.1-1.8,20.7l-27.6,27.6-.3.3-.2.2,23.9,23.9,28.1-28.1c5.1-5,13.2-6.2,19.6-2.4,4.6,2.7,9.4,5.2,14.4,7.3l.8.3c4.9,2.1,10,3.8,15.3,5.1,7.4,1.4,13,8,13,15.8v39.7h33.8v-39.7c0-7.2,4.9-13.8,12.2-15.6,5.5-1.4,10.9-3.2,16.1-5.3,4.9-2,9.7-4.4,14.2-7,6.3-4.4,15.1-3.9,20.7,1.8l28.1,28.1,23.9-23.9-.2-.2-.3-.3-27.6-27.6c-5-5.1-6.2-13.2-2.4-19.6,2.7-4.6,5.2-9.4,7.3-14.4l.3-.8c2.1-4.9,3.8-10,5.1-15.3,1.4-7.4,8-13,15.8-13h39.7v-33.8h-39.7c-7.2,0-13.8-4.9-15.6-12.2-1.4-5.5-3.2-10.9-5.3-16.1-2-4.9-4.4-9.7-7-14.2-4.4-6.3-3.9-15.1,1.8-20.7l28.1-28.1-23.9-23.9-28.1,28.1c-5.1,5-13.2,6.2-19.6,2.4-4.6-2.7-9.4-5.2-14.4-7.3l-.8-.3h0ZM717,271.6v-64.8c0-11.1-4.5-21.2-11.8-28.6-7.3-7.3-17.4-11.8-28.6-11.8h-329.2c-11.1,0-21.2,4.5-28.6,11.8-7.3,7.3-11.8,17.4-11.8,28.6v64.8h410ZM274.8,271.6v-64.8c0-20,8.2-38.1,21.3-51.2,13.2-13.2,31.3-21.3,51.3-21.3h329.2c20,0,38.1,8.2,51.2,21.3,13.2,13.2,21.3,31.3,21.3,51.3v64.8h32.2v-64.8c0-28.9-11.7-55.1-30.7-74.1-19-19-45.2-30.7-74.1-30.7h-329.2c-28.9,0-55.1,11.7-74.1,30.7-19,19-30.7,45.2-30.7,74.1v64.8h32.2ZM725.3,458.6h253.7v-100.8c0-14.8-6.1-28.3-15.9-38.1-9.8-9.8-23.3-15.9-38.2-15.9H98.9c-14.8,0-28.3,6.1-38.2,15.9-9.8,9.8-15.9,23.3-15.9,38.1v100.8h253.6v-11.2c0-13.7,5.6-26.1,14.6-35.1l1.1-1c8.9-8.4,20.9-13.6,34.1-13.6s26.1,5.6,35.1,14.6c9,9,14.6,21.4,14.6,35.1v11.2h227.8v-11.2c0-13.7,5.6-26.1,14.6-35.1l1.1-1c8.9-8.4,20.9-13.6,34.1-13.6s26.1,5.6,35.1,14.6c9,9,14.6,21.4,14.6,35.1v11.2h0ZM330.9,474.3v27.7c0,4.8,2,9.1,5.2,12.3,3.2,3.2,7.5,5.2,12.3,5.2s9.2-2,12.4-5.2c3.2-3.2,5.2-7.5,5.2-12.3v-54.6c0-4.8-2-9.2-5.2-12.3-3.2-3.2-7.5-5.2-12.3-5.2s-8.7,1.7-11.8,4.5l-.6.6c-3.2,3.2-5.2,7.5-5.2,12.3v26.9Z"/>
</svg>