<?xml version="1.0" encoding="UTF-8"?>
<svg id="Camada_1" xmlns="http://www.w3.org/2000/svg" version="1.1" viewBox="0 0 1024 1024">
  <!-- Generator: Adobe Illustrator 29.0.0, SVG Export Plug-In . SVG Version: 2.1.0 Build 186)  -->
  <defs>
    <style>
      .st0 {
        fill: #fff;
      }
    </style>
  </defs>
  <path class="st0" d="M501.7,246.3c2.7,2.7,6.4,4.3,10.3,4.3h87.2c3.9,0,7.5-1.5,10.3-4.3l23.7-23.7c24.7,13.4,55.6,4.2,69-20.5,13.4-24.7,4.2-55.6-20.5-69-24.7-13.4-55.6-4.2-69,20.5-8.2,15.1-8.2,33.3,0,48.4l-19.4,19.4h-75.1l-49.6-49.6v-95.7h42.2c1.4.3,2.8.4,4.2.3,129.3-4.8,262.5,53.7,326.9,174.1h-48.6c-8-26.9-36.3-42.2-63.2-34.2-26.9,8-42.2,36.3-34.2,63.2,4.9,16.4,17.8,29.3,34.2,34.2v132.9h-109c-8,0-14.5,6.5-14.5,14.5v79.9h-29.1v-87.2c0-4.2-1.9-8.3-5.1-11l-45.8-39.2v-95h59.4l19.4,19.4c-13.4,24.7-4.2,55.6,20.5,69,24.7,13.4,55.6,4.2,69-20.5,13.4-24.7,4.2-55.6-20.5-69-15.1-8.2-33.3-8.2-48.4,0l-23.7-23.7c-2.7-2.7-6.4-4.3-10.3-4.3h-79.9c-8,0-14.5,6.5-14.5,14.5v116.2c0,4.2,1.9,8.3,5.1,11l45.8,39.2v80.5h-58.1c-3.9,0-7.5,1.5-10.3,4.3l-116.2,116.2c-2.7,2.7-4.3,6.4-4.3,10.3v118.4c-26.9,8-42.2,36.3-34.2,63.3,8,26.9,36.3,42.2,63.3,34.2,26.9-8,42.2-36.3,34.2-63.3-4.9-16.4-17.8-29.3-34.2-34.2v-112.4l107.7-107.7h262.8c5.5,0,10.5-3.1,13-8l43.6-87.2c1-2,1.5-4.2,1.5-6.5v-50.9h64v59.8l-18.8,41.2c-1.6,3.5-1.7,7.5-.4,11.1l64,170.4c.3.7.2,1.5-.2,2.1-.2.4-.7.7-1.1.7h-62.4c-8,0-14.5,6.5-14.5,14.5,0,1.6.3,3.1.8,4.6l17.3,51.2-33.8,11.7c-7.6,2.6-11.6,10.9-9,18.5.5,1.3,1.1,2.6,1.9,3.7l21.5,30.1-18.7,14.8c-3.5,2.8-5.5,7-5.5,11.4v37.4c0,16.7-8.7,32.3-23,40.9-6.8,4.1-14.6,6.2-22.5,6.2-60.8,0-293.6-76.4-293.6-203.4v-30.3c0-8-6.5-14.5-14.5-14.5s-14.5,6.5-14.5,14.5v30.3c0,155,261,232.5,322.7,232.5,13.1,0,26-3.6,37.3-10.3,23.1-13.9,37.3-38.9,37.3-65.9v-30.3l24-19c6.1-4.8,7.3-13.5,2.8-19.8l-18.2-25.5,29-10.1c7.5-2.6,11.5-10.8,9-18.4l-15.4-45.7h42.2c10,0,19.4-5,25.1-13.2,5.8-8.5,7.1-19.3,3.5-28.9l-61.9-164.7,17.6-38.6c.9-1.9,1.3-4,1.3-6v-77.2c0-.1,0-.2,0-.3s0-.2,0-.3v-2.6c-4.6-109.8-49.4-202.2-129.6-267.2-75.3-59.6-169.7-89.9-265.6-85.5-1-.2-1.9-.3-2.9-.3h-58.1c-8,0-14.5,6.5-14.5,14.5v116.2c0,3.9,1.5,7.5,4.3,10.3l58.1,58.1ZM657.3,156.1c12,0,21.8,9.8,21.8,21.8s-9.8,21.8-21.8,21.8-21.8-9.8-21.8-21.8,9.8-21.8,21.8-21.8ZM650,330.5c12,0,21.8,9.8,21.8,21.8s-9.8,21.8-21.8,21.8-21.8-9.8-21.8-21.8,9.8-21.8,21.8-21.8ZM395.8,839c0,12-9.8,21.8-21.8,21.8s-21.8-9.8-21.8-21.8,9.8-21.8,21.8-21.8,21.8,9.8,21.8,21.8ZM722.7,265.1c0-12,9.8-21.8,21.8-21.8s21.8,9.8,21.8,21.8-9.8,21.8-21.8,21.8-21.8-9.8-21.8-21.8ZM880.3,388.6h-77.7c-8,0-14.5,6.5-14.5,14.5v62l-38,76.1h-114.5v-65.4h109c8,0,14.5-6.5,14.5-14.5v-147.4c16.4-4.9,29.2-17.8,34.2-34.2h62.3c14,34.8,22.4,71.6,24.9,109Z"/>
  <path class="st0" d="M112.5,146.7v125.6c0,4.4,2,8.6,5.4,11.3l79.9,64.2c.6.5,1.2.9,1.8,1.2v155.7c0,3.5,1.2,6.8,3.5,9.5l40.1,46.8v120.3c-26.9,8-42.2,36.3-34.2,63.3,8,26.9,36.3,42.2,63.3,34.2s42.2-36.3,34.2-63.3c-4.9-16.4-17.8-29.3-34.2-34.2v-125.6c0-3.5-1.2-6.8-3.5-9.5l-40.1-46.8V181.1l72.6,41.5v30c-26.9,8-42.2,36.3-34.2,63.3,8,26.9,36.3,42.2,63.3,34.2,26.9-8,42.2-36.3,34.2-63.3-4.9-16.4-17.8-29.3-34.2-34.2v-38.5c0-5.2-2.8-10-7.3-12.6l-101.7-58.1c-7-4-15.8-1.6-19.8,5.4-1.3,2.2-1.9,4.7-1.9,7.2v155.9l-58.1-46.7v-118.7c26.9-8,42.2-36.3,34.2-63.3-8-26.9-36.3-42.2-63.3-34.2-26.9,8-42.2,36.3-34.2,63.3,4.9,16.4,17.8,29.3,34.2,34.2ZM279.5,730c0,12-9.8,21.8-21.8,21.8s-21.8-9.8-21.8-21.8,9.8-21.8,21.8-21.8,21.8,9.8,21.8,21.8ZM337.7,301.4c0,12-9.8,21.8-21.8,21.8s-21.8-9.8-21.8-21.8,9.8-21.8,21.8-21.8,21.8,9.8,21.8,21.8ZM127,76.2c12,0,21.8,9.8,21.8,21.8s-9.8,21.8-21.8,21.8-21.8-9.8-21.8-21.8,9.8-21.8,21.8-21.8Z"/>
  <path class="st0" d="M439.4,278.4v213.2l-109,109v-105.1c26.9-8,42.2-36.3,34.2-63.3-8-26.9-36.3-42.2-63.3-34.2-26.9,8-42.2,36.3-34.2,63.3,4.9,16.4,17.8,29.3,34.2,34.2v140.2c0,8,6.5,14.5,14.5,14.5,3.9,0,7.6-1.5,10.3-4.3l138-138c2.7-2.7,4.3-6.4,4.3-10.3v-225.2c0-3.9-1.5-7.5-4.3-10.3l-53.9-53.9v-110.2c0-8-6.5-14.5-14.5-14.5s-14.5,6.5-14.5,14.5v116.2c0,3.9,1.5,7.5,4.3,10.3l53.9,53.9ZM315.9,468.5c-12,0-21.8-9.8-21.8-21.8s9.8-21.8,21.8-21.8,21.8,9.8,21.8,21.8-9.8,21.8-21.8,21.8h0Z"/>
  <path class="st0" d="M68.9,628.3c0,28.1,22.7,50.9,50.8,50.9,28.1,0,50.9-22.7,50.9-50.8,0-22.5-14.8-42.3-36.3-48.8v-98.7c26.9-8,42.2-36.3,34.2-63.3-8-26.9-36.3-42.2-63.3-34.2-26.9,8-42.2,36.3-34.2,63.3,4.9,16.4,17.8,29.3,34.2,34.2v98.7c-21.5,6.4-36.3,26.2-36.3,48.7ZM97.9,432.2c0-12,9.8-21.8,21.8-21.8s21.8,9.8,21.8,21.8-9.8,21.8-21.8,21.8c-12,0-21.8-9.8-21.8-21.8h0ZM119.7,606.5c12,0,21.8,9.8,21.8,21.8,0,12-9.8,21.8-21.8,21.8-12,0-21.8-9.8-21.8-21.8s9.8-21.8,21.8-21.8h0Z"/>
</svg>