<?xml version="1.0" encoding="UTF-8"?>
<svg id="Camada_1" xmlns="http://www.w3.org/2000/svg" version="1.1" xmlns:xlink="http://www.w3.org/1999/xlink" viewBox="0 0 1024 1024">
  <!-- Generator: Adobe Illustrator 29.5.1, SVG Export Plug-In . SVG Version: 2.1.0 Build 141)  -->
  <defs>
    <style>
      .st0 {
        fill: url(#Gradiente_sem_nome_701);
      }

      .st0, .st1, .st2 {
        stroke: #fff;
        stroke-miterlimit: 10;
      }

      .st3 {
        fill: url(#Gradiente_sem_nome_421);
      }

      .st4 {
        fill: url(#Gradiente_sem_nome_42);
      }

      .st5 {
        fill: url(#Gradiente_sem_nome_60);
      }

      .st1 {
        fill: url(#Gradiente_sem_nome_70);
      }

      .st2 {
        fill: none;
        stroke-width: .25px;
      }
    </style>
    <radialGradient id="Gradiente_sem_nome_42" data-name="Gradiente sem nome 42" cx="112.84" cy="26.25" fx="112.84" fy="26.25" r="912.42" gradientTransform="translate(55.8 -80.16) rotate(40.98) scale(1 1.64)" gradientUnits="userSpaceOnUse">
      <stop offset="0" stop-color="#fff"/>
      <stop offset=".48" stop-color="#f5f5f5" stop-opacity="0"/>
      <stop offset="1" stop-color="#f5f5f5" stop-opacity="0"/>
    </radialGradient>
    <radialGradient id="Gradiente_sem_nome_421" data-name="Gradiente sem nome 42" cx="1059.69" cy="1027.99" fx="1059.69" fy="1027.99" r="1188.04" gradientTransform="translate(1749.65 -1092.18) rotate(46.4) scale(1 1.91)" xlink:href="#Gradiente_sem_nome_42"/>
    <radialGradient id="Gradiente_sem_nome_60" data-name="Gradiente sem nome 60" cx="513.54" cy="509.28" fx="513.54" fy="509.28" r="620.31" gradientUnits="userSpaceOnUse">
      <stop offset="0" stop-color="#fff" stop-opacity=".3"/>
      <stop offset=".66" stop-color="#f5f5f5" stop-opacity="0"/>
      <stop offset="1" stop-color="#f5f5f5"/>
    </radialGradient>
    <radialGradient id="Gradiente_sem_nome_70" data-name="Gradiente sem nome 70" cx="-3.03" cy="995.87" fx="-3.03" fy="995.87" r="1382.63" gradientUnits="userSpaceOnUse">
      <stop offset="0" stop-color="#f5f5f5" stop-opacity=".5"/>
      <stop offset=".85" stop-color="#fff"/>
    </radialGradient>
    <radialGradient id="Gradiente_sem_nome_701" data-name="Gradiente sem nome 70" cx="-3.03" cy="995.87" fx="-3.03" fy="995.87" r="1382.63" xlink:href="#Gradiente_sem_nome_70"/>
  </defs>
  <circle class="st4" cx="512" cy="512" r="511.3"/>
  <circle class="st3" cx="512" cy="512" r="511.3"/>
  <circle class="st5" cx="512" cy="512" r="511.3"/>
  <circle class="st2" cx="512" cy="512" r="511.3"/>
  <g>
    <path class="st1" d="M764.56,227.99h-505.13c-30.45,0-55.26,24.78-55.26,55.26v72.02h615.66v-72.02c0-30.45-24.78-55.26-55.26-55.26h0ZM271.55,315.28c-13.19,0-23.9-10.71-23.9-23.9s10.71-23.92,23.9-23.92,23.9,10.71,23.9,23.92-10.71,23.9-23.9,23.9ZM348.36,315.28c-13.19,0-23.9-10.71-23.9-23.9s10.71-23.92,23.9-23.92,23.9,10.71,23.9,23.92-10.71,23.9-23.9,23.9ZM425.19,315.28c-13.19,0-23.9-10.71-23.9-23.9s10.71-23.92,23.9-23.92,23.92,10.71,23.92,23.92-10.71,23.9-23.92,23.9Z"/>
    <path class="st0" d="M204.16,740.75c0,30.45,24.78,55.26,55.26,55.26h505.16c30.45,0,55.26-24.78,55.26-55.26l-.03-347.67H204.16v347.67ZM439.26,468.76c0-5.87,2.99-11.16,8.05-14.05,2.66-1.49,5.42-2.3,8.28-2.3s5.42.68,7.95,2.08l123,69.08c5.29,2.89,8.4,8.3,8.4,14.18s-3.11,11.42-8.4,14.28l-123,69.08c-5.19,2.89-11.06,2.78-16.25-.23-5.06-2.86-8.05-8.18-8.05-14.05v-138.1l.03.03ZM297.35,686.67h63.34v-18.3c0-9.57,7.75-17.32,17.32-17.32s17.32,7.75,17.32,17.32v18.3h331.35c9.57,0,17.32,7.75,17.32,17.32s-7.75,17.32-17.32,17.32h-331.37v18.3c0,9.57-7.75,17.32-17.32,17.32s-17.32-7.75-17.32-17.32v-18.3h-63.34c-9.57,0-17.32-7.75-17.32-17.32s7.75-17.32,17.32-17.32h.03Z"/>
  </g>
</svg>