<?xml version="1.0" encoding="UTF-8"?>
<svg id="Camada_1" xmlns="http://www.w3.org/2000/svg" version="1.1" xmlns:xlink="http://www.w3.org/1999/xlink" viewBox="0 0 1024 1024">
  <!-- Generator: Adobe Illustrator 29.5.1, SVG Export Plug-In . SVG Version: 2.1.0 Build 141)  -->
  <defs>
    <style>
      .st0 {
        fill: url(#Gradiente_sem_nome_9);
      }

      .st0, .st1, .st2, .st3, .st4, .st5, .st6 {
        stroke: #fff;
        stroke-miterlimit: 10;
      }

      .st1 {
        fill: url(#Gradiente_sem_nome_7);
      }

      .st2 {
        fill: url(#Gradiente_sem_nome_8);
      }

      .st7 {
        fill: url(#Gradiente_sem_nome_2);
      }

      .st8 {
        fill: url(#Gradiente_sem_nome);
      }

      .st3 {
        fill: url(#Gradiente_sem_nome_5);
      }

      .st9 {
        fill: url(#Gradiente_sem_nome_3);
      }

      .st4 {
        fill: none;
        stroke-width: .25px;
      }

      .st5 {
        fill: url(#Gradiente_sem_nome_4);
      }

      .st6 {
        fill: url(#Gradiente_sem_nome_6);
      }
    </style>
    <radialGradient id="Gradiente_sem_nome" data-name="Gradiente sem nome" cx="123.93" cy="1025.12" fx="123.93" fy="1025.12" r="912.42" gradientTransform="translate(-1083.32 1214.26) rotate(40.98) scale(1 -1.64)" gradientUnits="userSpaceOnUse">
      <stop offset="0" stop-color="#fff"/>
      <stop offset=".48" stop-color="#f5f5f5" stop-opacity="0"/>
      <stop offset="1" stop-color="#f5f5f5" stop-opacity="0"/>
    </radialGradient>
    <radialGradient id="Gradiente_sem_nome_2" data-name="Gradiente sem nome 2" cx="1070.86" cy="25.5" fx="1070.86" fy="25.5" r="1188.04" gradientTransform="translate(284.79 287.36) rotate(46.4) scale(1 -1.91)" gradientUnits="userSpaceOnUse">
      <stop offset="0" stop-color="#fff"/>
      <stop offset=".48" stop-color="#f5f5f5" stop-opacity="0"/>
      <stop offset="1" stop-color="#f5f5f5" stop-opacity="0"/>
    </radialGradient>
    <radialGradient id="Gradiente_sem_nome_3" data-name="Gradiente sem nome 3" cx="513.54" cy="516.72" fx="513.54" fy="516.72" r="620.31" gradientTransform="translate(0 1026) scale(1 -1)" gradientUnits="userSpaceOnUse">
      <stop offset="0" stop-color="#fff" stop-opacity=".3"/>
      <stop offset=".66" stop-color="#f5f5f5" stop-opacity="0"/>
      <stop offset="1" stop-color="#f5f5f5"/>
    </radialGradient>
    <radialGradient id="Gradiente_sem_nome_4" data-name="Gradiente sem nome 4" cx="-76.24" cy="-69.75" fx="-76.24" fy="-69.75" r="1558.15" gradientTransform="translate(0 1026) scale(1 -1)" gradientUnits="userSpaceOnUse">
      <stop offset="0" stop-color="#f5f5f5" stop-opacity=".5"/>
      <stop offset=".85" stop-color="#fff"/>
    </radialGradient>
    <radialGradient id="Gradiente_sem_nome_5" data-name="Gradiente sem nome 5" cx="-76.24" cy="-69.75" fx="-76.24" fy="-69.75" r="1558.15" gradientTransform="translate(0 1026) scale(1 -1)" gradientUnits="userSpaceOnUse">
      <stop offset="0" stop-color="#f5f5f5" stop-opacity=".5"/>
      <stop offset=".85" stop-color="#fff"/>
    </radialGradient>
    <radialGradient id="Gradiente_sem_nome_6" data-name="Gradiente sem nome 6" cx="-76.24" cy="-69.75" fx="-76.24" fy="-69.75" r="1558.15" gradientTransform="translate(0 1026) scale(1 -1)" gradientUnits="userSpaceOnUse">
      <stop offset="0" stop-color="#f5f5f5" stop-opacity=".5"/>
      <stop offset=".85" stop-color="#fff"/>
    </radialGradient>
    <radialGradient id="Gradiente_sem_nome_7" data-name="Gradiente sem nome 7" cx="-76.24" cy="-69.75" fx="-76.24" fy="-69.75" r="1558.15" gradientTransform="translate(0 1026) scale(1 -1)" gradientUnits="userSpaceOnUse">
      <stop offset="0" stop-color="#f5f5f5" stop-opacity=".5"/>
      <stop offset=".85" stop-color="#fff"/>
    </radialGradient>
    <radialGradient id="Gradiente_sem_nome_8" data-name="Gradiente sem nome 8" cx="-76.24" cy="-69.75" fx="-76.24" fy="-69.75" r="1558.15" gradientTransform="translate(0 1026) scale(1 -1)" gradientUnits="userSpaceOnUse">
      <stop offset="0" stop-color="#f5f5f5" stop-opacity=".5"/>
      <stop offset=".85" stop-color="#fff"/>
    </radialGradient>
    <radialGradient id="Gradiente_sem_nome_9" data-name="Gradiente sem nome 9" cx="-76.24" cy="-69.75" fx="-76.24" fy="-69.75" r="1558.15" gradientTransform="translate(0 1026) scale(1 -1)" gradientUnits="userSpaceOnUse">
      <stop offset="0" stop-color="#f5f5f5" stop-opacity=".5"/>
      <stop offset=".85" stop-color="#fff"/>
    </radialGradient>
  </defs>
  <circle class="st8" cx="512" cy="512" r="511.3"/>
  <circle class="st7" cx="512" cy="512" r="511.3"/>
  <circle class="st9" cx="512" cy="512" r="511.3"/>
  <circle class="st4" cx="512" cy="512" r="511.3"/>
  <g>
    <path class="st5" d="M397.81,815.07l50.75-16.96c8.66-2.94,13.35-12.32,10.51-21.07l-35.74-106.96-25.82.44-92.44,30.89,26.38,78.96c8.77,27.88,38.45,43.38,66.36,34.7h0Z"/>
    <path class="st3" d="M564.3,224.17l-233.1,170.32,81.05,242.54,288.67-4.02v.04c4.31-.15,8.53-.92,12.58-2.33,8.25-2.8,15.39-8.11,20.4-15.28,8.2-11.56,10.29-26.39,5.67-39.79l-109.97-329.11c-4.4-13.43-14.96-23.98-28.46-28.39-12.53-3.99-26.23-1.75-36.85,6.01h0Z"/>
    <path class="st6" d="M378.75,641.7l-77.18-230.98-82.53,27.58c-36.38,12.34-55.94,51.75-43.82,88.15l33.06,98.94c12.02,35.71,50.24,55.4,86.26,44.46l84.22-28.14h-.01Z"/>
    <path class="st1" d="M800.54,378.6l40.47-13.52c8.72-2.91,13.43-12.35,10.51-21.07-2.91-8.72-12.35-13.43-21.07-10.51l-40.47,13.52c-8.72,2.91-13.43,12.35-10.51,21.07s12.35,13.43,21.07,10.51Z"/>
    <path class="st2" d="M702.57,274.61c3.91-1.31,7.17-4,9.18-7.55l20.05-35.22c2.37-3.85,3.07-8.48,1.94-12.81-1.14-4.37-3.98-8.09-7.88-10.31-3.91-2.26-8.57-2.8-12.9-1.54-4.29,1.25-7.92,4.2-10.07,8.17l-20.05,35.22c-3.4,5.98-2.77,13.45,1.62,18.8,4.38,5.3,11.58,7.42,18.12,5.24h0Z"/>
    <path class="st0" d="M772.9,520.09l37.2,16.1c4.1,1.88,8.78,2.05,12.96.47,4.22-1.59,7.62-4.83,9.39-8.99,1.78-4.11,1.82-8.79.11-12.93-1.72-4.18-5.05-7.46-9.26-9.11l-37.2-16.1c-4.06-1.89-8.74-2.06-12.92-.48-4.21,1.63-7.61,4.87-9.39,8.99-1.78,4.11-1.82,8.79-.1,12.97,1.7,4.14,5.04,7.41,9.21,9.08h0Z"/>
  </g>
</svg>