<?xml version="1.0" encoding="UTF-8"?>
<svg id="Camada_1" xmlns="http://www.w3.org/2000/svg" version="1.1" xmlns:xlink="http://www.w3.org/1999/xlink" viewBox="0 0 1024 1024">
  <!-- Generator: Adobe Illustrator 29.5.1, SVG Export Plug-In . SVG Version: 2.1.0 Build 141)  -->
  <defs>
    <style>
      .st0 {
        fill: url(#Gradiente_sem_nome_701);
      }

      .st0, .st1, .st2, .st3 {
        stroke: #fff;
        stroke-miterlimit: 10;
      }

      .st4 {
        fill: url(#Gradiente_sem_nome_421);
      }

      .st1 {
        fill: url(#Gradiente_sem_nome_702);
      }

      .st5 {
        fill: url(#Gradiente_sem_nome_42);
      }

      .st6 {
        fill: url(#Gradiente_sem_nome_60);
      }

      .st2 {
        fill: url(#Gradiente_sem_nome_70);
      }

      .st3 {
        fill: none;
        stroke-width: .25px;
      }
    </style>
    <radialGradient id="Gradiente_sem_nome_42" data-name="Gradiente sem nome 42" cx="112.84" cy="26.25" fx="112.84" fy="26.25" r="912.42" gradientTransform="translate(55.8 -80.16) rotate(40.98) scale(1 1.64)" gradientUnits="userSpaceOnUse">
      <stop offset="0" stop-color="#fff"/>
      <stop offset=".48" stop-color="#f5f5f5" stop-opacity="0"/>
      <stop offset="1" stop-color="#f5f5f5" stop-opacity="0"/>
    </radialGradient>
    <radialGradient id="Gradiente_sem_nome_421" data-name="Gradiente sem nome 42" cx="1059.69" cy="1027.99" fx="1059.69" fy="1027.99" r="1188.04" gradientTransform="translate(1749.65 -1092.18) rotate(46.4) scale(1 1.91)" xlink:href="#Gradiente_sem_nome_42"/>
    <radialGradient id="Gradiente_sem_nome_60" data-name="Gradiente sem nome 60" cx="513.54" cy="509.28" fx="513.54" fy="509.28" r="620.31" gradientUnits="userSpaceOnUse">
      <stop offset="0" stop-color="#fff" stop-opacity=".3"/>
      <stop offset=".66" stop-color="#f5f5f5" stop-opacity="0"/>
      <stop offset="1" stop-color="#f5f5f5"/>
    </radialGradient>
    <radialGradient id="Gradiente_sem_nome_70" data-name="Gradiente sem nome 70" cx="-54.28" cy="1152.84" fx="-54.28" fy="1152.84" r="1614.92" gradientUnits="userSpaceOnUse">
      <stop offset="0" stop-color="#f5f5f5" stop-opacity=".5"/>
      <stop offset=".85" stop-color="#fff"/>
    </radialGradient>
    <radialGradient id="Gradiente_sem_nome_701" data-name="Gradiente sem nome 70" cx="-54.28" cy="1152.84" fx="-54.28" fy="1152.84" r="1614.92" xlink:href="#Gradiente_sem_nome_70"/>
    <radialGradient id="Gradiente_sem_nome_702" data-name="Gradiente sem nome 70" cx="-54.28" cy="1152.84" fx="-54.28" fy="1152.84" r="1614.92" xlink:href="#Gradiente_sem_nome_70"/>
  </defs>
  <circle class="st5" cx="512" cy="512" r="511.3"/>
  <circle class="st4" cx="512" cy="512" r="511.3"/>
  <circle class="st6" cx="512" cy="512" r="511.3"/>
  <circle class="st3" cx="512" cy="512" r="511.3"/>
  <g>
    <path class="st2" d="M753.68,270.31c-53.12-53.2-93.03-45.22-93.03-45.22l-186.11,186.09-212.7,212.67-37.19,175.44,175.46-37.2,398.82-398.74s7.96-39.87-45.25-93.05ZM389.66,740.99l-59.83,12.88c-5.77-10.82-12.72-21.57-25.43-34.33-12.71-12.71-23.53-19.69-34.36-25.44l12.88-59.85,17.31-17.24s32.59.64,69.27,37.39c36.74,36.78,37.44,69.27,37.44,69.27l-17.28,17.32Z"/>
    <path class="st0" d="M341.68,493.88l25.14-25.13-114.09-114.1,101.93-101.93,23.55,23.55-31.76,31.76c-6.95,6.93-6.94,18.2,0,25.12,6.93,6.95,18.17,6.95,25.12,0l31.76-31.76,43.44,43.41-31.77,31.78c-6.94,6.93-6.94,18.2.01,25.12,3.81,3.82,8.9,5.33,13.89,4.94l64.96-64.98-116.35-116.35c-12.61-12.61-34.16-11.61-48.01,2.25l-101.92,101.94c-13.85,13.86-14.85,35.38-2.24,48.01l116.33,116.34Z"/>
    <path class="st1" d="M798.64,646.46l-116.27-116.27-66.54,66.54c.42,3.87,1.87,7.68,4.85,10.65,6.93,6.95,18.16,6.95,25.11,0l31.77-31.76,43.42,43.44-31.77,31.76c-6.94,6.93-6.94,18.2,0,25.12,6.95,6.96,18.19,6.96,25.14,0l31.76-31.76,25.16,25.17h-.01l-101.91,101.94-114.03-114.03-25.14,25.12,116.29,116.28c12.62,12.61,34.15,11.61,48.01-2.23l101.92-101.93c13.88-13.88,14.87-35.41,2.25-48.04Z"/>
  </g>
</svg>