<?xml version="1.0" encoding="UTF-8"?>
<svg id="Camada_1" xmlns="http://www.w3.org/2000/svg" version="1.1" viewBox="0 0 1024 1024">
  <!-- Generator: Adobe Illustrator 29.0.0, SVG Export Plug-In . SVG Version: 2.1.0 Build 186)  -->
  <defs>
    <style>
      .st0 {
        fill: #fff;
      }

      .st1 {
        fill: none;
      }
    </style>
  </defs>
  <rect class="st1" x="41" y="41.8" width="942" height="940.3"/>
  <path class="st0" d="M726.4,492.1c-3.9-8.3-7.5-16.7-11.1-24.7,34.5-26.4,44.2-54.3,30.3-85.4-13.9-31.1-41.5-42.1-86.8-33.7-10.8-22.9-21.8-46-32.7-69.1-21.4-45.4-42.4-91-64.2-136.1-.6-1.3-1.3-2.5-2-3.7-.7-1.2-1.5-2.4-2.3-3.5-.8-1.2-1.7-2.3-2.6-3.4-.9-1-1.9-2.1-2.8-3.1-1-1-2.1-1.9-3.1-2.8-1.1-.9-2.2-1.8-3.3-2.6-1.2-.8-2.3-1.5-3.5-2.2-1.2-.7-2.5-1.4-3.7-2-1.3-.6-2.6-1.1-3.9-1.6-1.3-.5-2.7-.9-4-1.3-1.4-.4-2.7-.7-4.1-.9-1.4-.2-2.8-.5-4.2-.6-1.4-.1-2.8-.2-4.2-.2-1.4,0-2.8,0-4.2.2-1.4,0-2.8.3-4.2.5-1.4.2-2.8.5-4.2.9-1.4.4-2.7.7-4,1.2-1.4.5-2.7,1-3.9,1.6-1.3.6-2.5,1.2-3.7,1.9-1.2.7-2.4,1.4-3.5,2.2-1.2.8-2.3,1.6-3.4,2.5-1.1.9-2.1,1.8-3.1,2.8-1,1-2,2-2.9,3.1s-1.8,2.1-2.6,3.3c-.8,1.2-1.6,2.3-2.3,3.5-.7,1.2-1.4,2.4-2,3.7-.6,1.3-1.2,2.5-1.7,3.8s-.9,2.7-1.3,4c-.4,1.3-.7,2.7-1,4.1-.2,1.4-.5,2.8-.6,4.2s-.2,2.8-.3,4.2c0,1.4,0,2.8,0,4.2,7.3,46.8-7.7,87.8-31.2,126.4-8.9,14.4-18.6,28.1-29.2,41.2-10.6,13.1-22,25.5-34.2,37.1-12.2,11.7-25,22.4-38.7,32.4-13.6,10-27.7,19-42.5,27.2-53.6,30.4-110.2,56.1-165.9,83-70.5,34-102.5,106.9-78.1,177.9.7,2.1,1.5,4.2,2.3,6.3.8,2.1,1.7,4.1,2.7,6.1.9,2,1.9,4,3,6,1,2,2.1,3.9,3.2,5.8,1.1,1.9,2.3,3.8,3.5,5.7,1.2,1.9,2.4,3.7,3.7,5.5s2.7,3.6,4,5.3c1.4,1.8,2.8,3.5,4.2,5.1,1.5,1.7,3,3.3,4.5,4.9,1.5,1.6,3.1,3.2,4.7,4.7,1.6,1.5,3.3,3,4.9,4.5,1.7,1.4,3.4,2.8,5.1,4.2,1.8,1.4,3.5,2.7,5.4,4,1.8,1.3,3.6,2.6,5.5,3.8,1.9,1.2,3.8,2.3,5.7,3.5s3.9,2.2,5.8,3.2c2,1,4,2,6,2.9,2,.9,4.1,1.8,6.1,2.6,2.1.8,4.2,1.6,6.3,2.3,2.1.7,4.2,1.4,6.3,2.1,2.1.7,4.3,1.3,6.4,1.8s4.3,1,6.5,1.4c2.2.4,4.4.8,6.6,1.1s4.4.6,6.6.8c2.2.2,4.4.4,6.7.5,2.2.1,4.4.2,6.7.2,2.2,0,4.4,0,6.6,0,2.2,0,4.5-.2,6.7-.4,2.2-.2,4.4-.5,6.6-.7,2.2-.3,4.4-.7,6.6-1.1,2.2-.4,4.4-.8,6.5-1.4,2.2-.5,4.3-1.1,6.5-1.7,9-2.8,13.5.4,18.1,7.8,13.5,21.9,27.7,43.3,41.7,64.9,21.8,33.9,43.5,67.9,65.6,101.6,1.4,2.4,3,4.7,4.8,6.8,1.8,2.1,3.7,4.2,5.9,6,2.1,1.8,4.3,3.5,6.7,5,2.4,1.5,4.9,2.8,7.4,3.9,2.6,1.1,5.2,2.1,7.9,2.7,2.7.7,5.5,1.2,8.3,1.4,2.8.3,5.6.3,8.3.2,2.8-.2,5.6-.6,8.3-1.2,2.6-.3,5.2-.7,7.8-1.4s5-1.6,7.5-2.7c2.4-1.1,4.8-2.4,6.9-3.9,2.2-1.4,4.2-3.1,6.2-4.9,1.9-1.8,3.7-3.8,5.3-5.9,1.6-2.1,3-4.3,4.3-6.7,1.2-2.4,2.3-4.8,3.1-7.3.8-2.5,1.5-5.1,1.9-7.7.9-7.7.8-15.4-.2-23-1.1-7.7-3.2-15.1-6.3-22.2-18-42.2-38.5-83.4-58-124.8,50.8-28.5,55.7-36.8,45.1-76,1.8-1.4,3.7-2.5,5.8-3.3,14.6-4.8,29.4-8.7,44.5-11.9,15-3.1,30.1-5.5,45.4-7,15.3-1.5,30.6-2.2,45.9-2.1,15.3,0,30.6,1.1,45.9,2.8,10.5,1,20.8,2.8,31,5.6,10.2,2.7,20.1,6.3,29.7,10.6,9.6,4.4,18.8,9.5,27.5,15.4,8.8,5.9,17,12.4,24.6,19.7,21.2,21.4,46.5,25.1,67.5,10.1,20.6-14.6,25.4-38.9,12.8-65.8-27.6-58.7-55.2-117.3-82.7-175.9h0ZM713.8,394.7c7.4,14.6,3.4,27.1-14.3,39.9l-24.9-52.8c19.9-5.5,32.1-1,39.2,12.9h0ZM205.5,749.1c-3,.7-6.1,1.4-9.1,1.9-3.1.5-6.2.8-9.3,1.1-3.1.2-6.2.3-9.3.2-3.1,0-6.2-.3-9.3-.7-3.1-.3-6.2-.8-9.2-1.5-3-.6-6.1-1.4-9-2.3-2.9-.9-5.9-2-8.8-3.1-2.9-1.2-5.7-2.5-8.4-3.9-2.8-1.4-5.5-3-8.1-4.7-2.6-1.7-5.2-3.5-7.6-5.4-2.4-1.9-4.8-4-7-6.1-2.3-2.1-4.5-4.3-6.5-6.7-2.1-2.3-4.1-4.7-5.9-7.2-1.9-2.5-3.6-5.1-5.2-7.7-1.6-2.7-3.1-5.4-4.5-8.2-1.4-2.8-2.6-5.6-3.7-8.5-1.2-2.8-2.3-5.8-3.3-8.7s-1.8-5.9-2.5-9c-.7-3-1.3-6.1-1.8-9.1-.4-3.1-.7-6.2-.9-9.2-.1-3.1-.2-6.2,0-9.3.1-3.1.4-6.2.7-9.3s.9-6.2,1.5-9.2c.7-3,1.4-6,2.4-9,.9-2.9,2-5.9,3.1-8.7,1.2-2.9,2.5-5.7,3.9-8.5,1.4-2.8,2.9-5.4,4.6-8.1,1.7-2.6,3.5-5.1,5.3-7.6,1.9-2.5,3.9-4.9,6-7.1,2.1-2.3,4.3-4.5,6.6-6.6,2.3-2.1,4.7-4.1,7.2-5.9,2.5-1.9,5-3.6,7.6-5.3,30.3-18.1,63.4-31.6,97-48,31,65.9,61.2,129.9,92.5,196.4-35.4,17.1-71.7,32.2-108.9,45.1h0ZM411.1,909.5c7.9,16.9,5.9,29.5-6.4,34.9-14.3,6.4-24.1-.1-32-12.5-35.4-55.5-71.2-110.7-107.9-167.5l62.9-29.8c2.5,4.4,5,8.2,6.9,12.2,25.6,54.2,51.1,108.4,76.5,162.7h0ZM368.2,736.1c-2.4-4.9-5-9.8-8.5-16.8l32.7-14.5c9.7,18.8,7.5,21.5-24.2,31.3h0ZM781.4,699.8c-.6,1.3-1.3,2.5-2.2,3.5-.9,1-2.1,1.9-3.3,2.5-7.2-1.7-16.7-1-21.2-5.5-8.5-8.1-17.5-15.4-27.1-22.1-9.6-6.6-19.7-12.5-30.2-17.6-10.5-5.1-21.4-9.3-32.6-12.7-11.2-3.4-22.6-5.9-34.2-7.5-80.5-13.4-158.1.1-234,26.6-16.9,5.9-33.5,13-52,20.3-30.8-65.4-60.7-129.1-89-189.3,43.6-30.4,87.5-57.2,127.1-89.5,57-46.6,101.5-103.5,118-177.6,3.5-18.4,4.9-36.9,4.2-55.6,0-10.2-3.5-21,9-25,14.1-4.5,17.4,7.7,21.8,17.1,45.7,97.2,91.4,194.4,137,291.5,34,72.3,68.1,144.6,102.1,216.9,1.2,2.7,2.1,4.4,3.5,7.9,4.6,11.6,3.6,15,3.2,16.1h0ZM659.4,123c-.7-1.7-1.3-3.4-1.6-5.1-.3-1.8-.4-3.6-.2-5.4.1-1.8.5-3.5,1.2-5.2.6-1.7,1.4-3.3,2.5-4.8,11.4-17.1,23-34.1,34.7-50.8,1-1.5,2.2-2.9,3.5-4.1s2.8-2.3,4.4-3.1c1.6-.8,3.3-1.5,5-1.9,1.8-.4,3.6-.7,5.4-.7,1.9,0,3.7.4,5.6.9,1.8.5,3.5,1.3,5.1,2.2,1.6,1,3.1,2.1,4.4,3.5,1.4,1.4,2.5,2.8,3.5,4.5l1.4,2.1-.6,2.4c-.2,1.3-.4,2.6-.5,4-.2,4.2-1.4,8.1-3.4,11.8-11.6,17.9-23.9,35.6-35.6,52.2-2.1,3.1-4.9,5.6-8.2,7.2-1.6.7-3.3,1.3-5,1.6-1.7.3-3.5.4-5.3.2-1.8-.1-3.5-.6-5.1-1.2-1.7-.7-3.2-1.4-4.7-2.5-2.8-2.1-5-4.6-6.6-7.8h0ZM977.1,641.9l-1.4,2-2.5.2c-1.3.3-2.6.6-4,.9-4,1.2-8.1,1.4-12.2.7-20.8-5-41.6-10.6-61.1-16.1-3.6-.9-6.8-2.7-9.5-5.3-1.3-1.3-2.3-2.7-3.2-4.2-.9-1.5-1.5-3.2-2-4.9-.5-1.7-.7-3.5-.6-5.2s.3-3.5.8-5.2c.4-1.3.8-2.5,1.4-3.7.6-1.2,1.3-2.3,2.1-3.3.8-1.1,1.7-2,2.7-2.9,1-.8,2.1-1.6,3.3-2.2,1.2-.7,2.4-1.2,3.6-1.6,1.3-.4,2.6-.7,3.9-.8,1.3-.1,2.7-.2,4,0,1.3,0,2.6.3,3.9.7,19.9,5,39.8,10.3,59.5,15.8,1.8.5,3.5,1.1,5,2,1.6.8,3.1,1.9,4.4,3.1s2.5,2.6,3.5,4.2c1,1.5,1.8,3.1,2.4,4.9.6,1.8.9,3.6,1,5.6,0,1.9,0,3.8-.4,5.6-.4,1.9-1,3.6-1.8,5.4-.8,1.7-1.9,3.3-3.1,4.7h0ZM902.4,313.1c-17.9,11.5-36.5,22.6-53.9,33-3.2,2-6.7,3-10.4,3.1-1.8,0-3.5-.2-5.2-.6-1.7-.4-3.4-1.1-4.9-2-1.6-.9-3-2-4.2-3.2-1.3-1.3-2.3-2.7-3.2-4.2-.7-1.2-1.2-2.4-1.7-3.6-.4-1.3-.7-2.5-.9-3.9-.2-1.3-.2-2.6-.2-4,0-1.3.3-2.6.7-3.9.3-1.3.8-2.5,1.4-3.7.6-1.2,1.3-2.3,2.1-3.4.8-1,1.7-2,2.8-2.9,1-.9,2.1-1.6,3.2-2.3,17.4-10.9,35-21.6,52.6-32,1.5-1,3.2-1.7,4.9-2.3,1.7-.6,3.5-.9,5.3-1,1.8,0,3.6,0,5.4.3,1.8.4,3.5.9,5.2,1.7,1.7.8,3.3,1.9,4.7,3.1,1.4,1.2,2.7,2.6,3.8,4.2,1.1,1.5,2,3.2,2.6,5,.7,1.8,1.1,3.6,1.3,5.5l.4,2.4-1.5,2c-.7,1.1-1.4,2.2-2.1,3.5-2,3.7-4.6,6.8-8,9.2h0Z"/>
</svg>