<?xml version="1.0" encoding="UTF-8"?>
<svg id="Camada_1" xmlns="http://www.w3.org/2000/svg" version="1.1" xmlns:xlink="http://www.w3.org/1999/xlink" viewBox="0 0 1024 1024">
  <!-- Generator: Adobe Illustrator 29.5.1, SVG Export Plug-In . SVG Version: 2.1.0 Build 141)  -->
  <defs>
    <style>
      .st0 {
        fill: url(#Gradiente_sem_nome_421);
      }

      .st1 {
        fill: url(#Gradiente_sem_nome_42);
      }

      .st2 {
        fill: #fff;
      }

      .st3 {
        fill: url(#Gradiente_sem_nome_60);
      }

      .st4 {
        fill: url(#Gradiente_sem_nome_70);
        fill-rule: evenodd;
      }

      .st5 {
        fill: none;
        stroke: #fff;
        stroke-miterlimit: 10;
        stroke-width: .25px;
      }
    </style>
    <radialGradient id="Gradiente_sem_nome_42" data-name="Gradiente sem nome 42" cx="112.84" cy="26.25" fx="112.84" fy="26.25" r="912.42" gradientTransform="translate(55.8 -80.16) rotate(40.98) scale(1 1.64)" gradientUnits="userSpaceOnUse">
      <stop offset="0" stop-color="#fff"/>
      <stop offset=".48" stop-color="#f5f5f5" stop-opacity="0"/>
      <stop offset="1" stop-color="#f5f5f5" stop-opacity="0"/>
    </radialGradient>
    <radialGradient id="Gradiente_sem_nome_421" data-name="Gradiente sem nome 42" cx="1059.69" cy="1027.99" fx="1059.69" fy="1027.99" r="1188.04" gradientTransform="translate(1749.65 -1092.18) rotate(46.4) scale(1 1.91)" xlink:href="#Gradiente_sem_nome_42"/>
    <radialGradient id="Gradiente_sem_nome_60" data-name="Gradiente sem nome 60" cx="513.54" cy="509.28" fx="513.54" fy="509.28" r="620.31" gradientUnits="userSpaceOnUse">
      <stop offset="0" stop-color="#fff" stop-opacity=".3"/>
      <stop offset=".66" stop-color="#f5f5f5" stop-opacity="0"/>
      <stop offset="1" stop-color="#f5f5f5"/>
    </radialGradient>
    <radialGradient id="Gradiente_sem_nome_70" data-name="Gradiente sem nome 70" cx="166.96" cy="992.86" fx="166.96" fy="992.86" r="1207.19" gradientUnits="userSpaceOnUse">
      <stop offset="0" stop-color="#f5f5f5" stop-opacity=".5"/>
      <stop offset=".85" stop-color="#fff"/>
    </radialGradient>
  </defs>
  <circle class="st1" cx="512" cy="512" r="511.3"/>
  <circle class="st0" cx="512" cy="512" r="511.3"/>
  <circle class="st3" cx="512" cy="512" r="511.3"/>
  <circle class="st5" cx="512" cy="512" r="511.3"/>
  <g>
    <path class="st4" d="M329.31,770.9c.56-39.11-2.13-71.59-8.23-99.28-5.68-25.8-14.49-48.05-26.2-66.13-.13-.36-.33-.68-.58-.93l-.06-.06c-4.97-7.54-10.57-14.51-16.64-20.71-12.67-17.57-23.04-36.78-30.77-57.06-10.91-28.57-16.45-58.72-16.45-89.6,0-67.11,26.14-130.2,73.6-177.66,47.46-47.46,110.56-73.6,177.66-73.6s130.2,26.14,177.66,73.6c47.46,47.46,73.6,110.56,73.6,177.66,0,.46.1.9.3,1.35,0,.03.01.05.03.08l59.41,135.98c.69,1.6,1.01,3.19.95,4.72-.06,1.62-.49,3.17-1.26,4.63-.75,1.48-1.78,2.71-3.07,3.68-1.26.92-2.75,1.56-4.41,1.9l-32.03,6.41c-3.73.75-7,2.61-9.48,5.38-2.49,2.79-3.97,6.26-4.29,10.04l-9.01,106.61c-1.17,13.75-18.29,20.44-52.34,20.44-9.53,0-20.46-.53-33.41-1.62-7.93-.66-15.27-1.43-21.75-2.1l-2.29-.24c-8.58-.91-16-1.7-20.97-1.89h-.65c-4.01,0-8.08,1.37-11.19,3.76-3.57,2.75-5.62,6.57-5.77,10.76l-1.91,91.01-250.48-67.1ZM335.75,578.38c-3.1,3.14-4.8,7.3-4.8,11.71s1.74,8.68,4.89,11.8c3.11,3.11,7.41,4.89,11.8,4.89s8.68-1.74,11.8-4.89c3.15-3.15,4.89-7.34,4.89-11.8s-1.74-8.65-4.89-11.8c-1.71-1.71-3.7-2.99-5.91-3.81v-87.79l33.11-36.6c1.96.77,4.02,1.16,6.15,1.16s4.27-.42,6.27-1.22c-1.22,2.34-1.86,4.98-1.86,7.71,0,3.11.85,6.11,2.45,8.69l-28.09,35.99c-.79,1.02-1.22,2.26-1.26,3.6v32.91c-2.22.82-4.21,2.11-5.91,3.81-3.15,3.16-4.89,7.35-4.89,11.8s1.74,8.61,4.89,11.8c3.16,3.16,7.35,4.89,11.8,4.89s8.69-1.78,11.8-4.89c3.11-3.11,4.89-7.41,4.89-11.8s-1.74-8.64-4.89-11.8c-1.71-1.71-3.7-2.99-5.91-3.81v-30.9l26.84-34.38c1.61.5,3.28.75,4.98.75,4.49,0,8.68-1.74,11.8-4.89,3.15-3.15,4.89-7.34,4.89-11.8s-1.74-8.65-4.89-11.8-7.35-4.89-11.8-4.89c-2.13,0-4.27.42-6.27,1.22,1.22-2.34,1.86-4.98,1.86-7.71,0-4.39-1.78-8.69-4.89-11.8-3.15-3.15-7.35-4.89-11.8-4.89s-8.65,1.74-11.8,4.89c-3.15,3.15-4.89,7.34-4.89,11.8,0,2.66.64,5.3,1.85,7.65l-34.33,37.93c-1.17,1.1-1.86,2.68-1.86,4.31v90.04c-2.22.82-4.21,2.11-5.91,3.81-.04.04-.07.08-.09.12ZM307.33,536.23c-3.15,3.16-4.89,7.35-4.89,11.8s1.78,8.69,4.89,11.8c3.19,3.16,7.38,4.89,11.8,4.89s8.65-1.74,11.8-4.89c3.11-3.11,4.89-7.41,4.89-11.8s-1.74-8.64-4.89-11.8c-1.71-1.71-3.7-2.99-5.91-3.81v-35.17c0-1.58-.61-3.06-1.72-4.17l-18.06-18.06c.98-2.19,1.47-4.51,1.47-6.88,0-4.45-1.74-8.65-4.89-11.8-3.15-3.15-7.34-4.89-11.8-4.89s-8.65,1.74-11.8,4.89c-3.15,3.15-4.89,7.34-4.89,11.8s1.74,8.65,4.89,11.8c3.12,3.15,7.31,4.89,11.8,4.89,2.44,0,4.75-.49,6.88-1.47l16.34,16.34v32.72c-2.22.82-4.21,2.11-5.91,3.81h0ZM412.68,538.72c.05.02.11.03.17.03,4.48,0,8.69-1.75,11.86-4.92.61-.59,1.21-1.28,1.81-2.12l16.14,4.33c.56.18,1.17.28,1.79.28,1.58,0,3.06-.61,4.17-1.72l24.66-24.66c1.13-1.13,1.75-2.62,1.75-4.2v-10.68c2.21-.81,4.27-2.14,5.98-3.85,3.18-3.17,4.92-7.39,4.92-11.86s-1.75-8.69-4.92-11.86c-3.17-3.18-7.39-4.92-11.86-4.92s-8.69,1.75-11.86,4.92c-3.18,3.17-4.92,7.39-4.92,11.86s1.75,8.69,4.92,11.86c1.71,1.71,3.77,3.03,5.98,3.85v8.23l-20.55,20.55-13.1-3.52c-.36-3.86-2.07-7.49-4.83-10.25-3.17-3.18-7.39-4.92-11.86-4.92s-8.69,1.75-11.86,4.92-4.92,7.39-4.92,11.86,1.75,8.69,4.92,11.86c3.12,3.12,7.24,4.86,11.63,4.92ZM509.09,508.87c.05.02.11.03.17.03,4.48,0,8.69-1.75,11.86-4.92.62-.59,1.21-1.29,1.81-2.12l16.14,4.33c.56.18,1.17.28,1.79.28,1.58,0,3.06-.61,4.17-1.73l24.66-24.66c1.13-1.13,1.75-2.62,1.75-4.2v-10.68c2.22-.83,4.28-2.15,5.98-3.85,3.17-3.18,4.92-7.39,4.92-11.86s-1.75-8.69-4.92-11.86c-3.17-3.18-7.39-4.92-11.86-4.92s-8.69,1.75-11.86,4.92c-3.17,3.17-4.92,7.39-4.92,11.86s1.75,8.69,4.92,11.86c1.71,1.71,3.77,3.03,5.98,3.85v8.23l-20.55,20.55-13.1-3.52c-.36-3.86-2.07-7.49-4.83-10.25-3.17-3.18-7.39-4.92-11.86-4.92s-8.69,1.75-11.86,4.92c-3.18,3.17-4.92,7.39-4.92,11.86s1.75,8.69,4.92,11.86c3.12,3.12,7.24,4.86,11.63,4.92ZM590.28,444.12c-3.17,3.17-4.92,7.39-4.92,11.86s1.75,8.69,4.92,11.86c3.17,3.18,7.39,4.92,11.86,4.92s8.69-1.75,11.86-4.92c2.76-2.76,4.47-6.39,4.83-10.25l17.42-4.65c1.06-.21,2.07-.76,2.89-1.57l36.1-36.1c1.13-1.13,1.75-2.62,1.75-4.2v-24.43c2.22-.83,4.29-2.15,5.98-3.85,3.17-3.17,4.92-7.39,4.92-11.86s-1.75-8.69-4.92-11.86c-3.17-3.18-7.39-4.92-11.86-4.92s-8.69,1.75-11.86,4.92c-3.17,3.18-4.92,7.39-4.92,11.86s1.75,8.69,4.92,11.86c1.71,1.71,3.77,3.03,5.98,3.85v22.01l-33.33,33.33-16.14,4.33c-.54-.74-1.16-1.47-1.81-2.12-3.17-3.18-7.39-4.92-11.86-4.92s-8.61,1.72-11.78,4.84c0,0-.02.01-.02.02ZM273.56,431.55c-.16.94-.23,1.86-.23,2.79,0,4.5,1.74,8.71,4.89,11.86s7.42,4.96,11.9,4.96,8.69-1.75,11.86-4.92c3.16-3.19,4.89-7.4,4.89-11.86.03-4.46-1.7-8.67-4.89-11.86s-7.39-4.92-11.86-4.92c-3.9,0-7.67,1.36-10.67,3.83l-11.76-6.8v-29.07l5.83-5.83c2.18.98,4.57,1.5,6.95,1.5,4.48,0,8.69-1.75,11.86-4.92,3.18-3.18,4.92-7.39,4.92-11.86s-1.75-8.69-4.92-11.86c-3.17-3.18-7.39-4.92-11.86-4.92s-8.69,1.75-11.86,4.92c-3.18,3.17-4.92,7.39-4.92,11.86,0,2.38.52,4.77,1.5,6.95l-7.54,7.54c-1.11,1.11-1.72,2.59-1.72,4.17v34.88c0,2.25,1.29,4.33,3.3,5.29l14.35,8.27ZM485.94,442.82c0,3.25,2.64,5.89,5.89,5.89s5.89-2.64,5.89-5.89v-15.21h16.33c3.7,0,7.21-1.46,9.91-4.12,2.69-2.73,4.16-6.25,4.16-9.94v-20.18h21.59l10.25,17.74c1.04,1.81,2.99,2.94,5.08,2.94h36.97c.82,2.22,2.11,4.21,3.81,5.91,3.16,3.15,7.35,4.89,11.8,4.89s8.61-1.74,11.8-4.89c3.16-3.16,4.89-7.35,4.89-11.8s-1.74-8.68-4.89-11.8c-3.15-3.15-7.34-4.89-11.8-4.89s-8.64,1.74-11.8,4.89c-1.71,1.71-2.99,3.7-3.81,5.91h-33.57l-10.05-17.42c-.95-1.97-3.03-3.26-5.27-3.26h-24.96v-8.46h82.03c.82,2.22,2.11,4.21,3.81,5.91,3.16,3.15,7.35,4.89,11.8,4.89s8.69-1.78,11.8-4.89c3.15-3.15,4.89-7.34,4.89-11.8s-1.74-8.68-4.89-11.8c-3.15-3.15-7.34-4.89-11.8-4.89s-8.65,1.74-11.8,4.89c-1.71,1.71-2.99,3.7-3.81,5.91h-82.03v-9.45h10.59c2.51,0,4.75-1.59,5.57-3.96l8.22-18.42h8.04c.82,2.22,2.11,4.21,3.81,5.91,3.15,3.15,7.35,4.89,11.8,4.89s8.65-1.74,11.8-4.89c3.15-3.15,4.89-7.34,4.89-11.8s-1.74-8.68-4.89-11.8c-3.15-3.15-7.34-4.89-11.8-4.89s-8.65,1.74-11.8,4.89c-1.71,1.71-2.99,3.7-3.81,5.91h-11.83c-2.3,0-4.41,1.36-5.36,3.47l-8.43,18.85h-6.77v-21.66c0-3.72-1.46-7.25-4.12-9.94-.15-.15-.29-.29-.44-.4-2.59-2.39-5.98-3.72-9.5-3.72h-28.26l-.03-4.48,10.46-5.09c2.39,1.53,5.17,2.33,8.05,2.33,3.98,0,7.74-1.57,10.58-4.41s4.41-6.6,4.41-10.58-1.55-7.76-4.38-10.58c-.07-.07-.14-.14-.22-.2-.06-.05-.11-.1-.17-.15-2.83-2.62-6.46-4.06-10.23-4.06-3.98,0-7.74,1.57-10.58,4.41-2.84,2.84-4.41,6.6-4.41,10.58,0,.88.08,1.79.26,2.83l-12.26,5.99c-2.03,1.02-3.29,3.06-3.29,5.32l.06,8.09h-1.66v-34.34c1.75-.75,3.33-1.82,4.69-3.19,2.84-2.84,4.41-6.6,4.41-10.58s-1.57-7.74-4.41-10.58c-2.84-2.84-6.6-4.41-10.58-4.41s-7.74,1.57-10.58,4.41c-2.84,2.84-4.41,6.6-4.41,10.58s1.57,7.74,4.41,10.58c1.36,1.36,2.94,2.43,4.69,3.19v34.34h-6.12v-8c0-2.51-1.59-4.74-3.96-5.57l-14.89-6.65v-5.56c1.74-.75,3.31-1.81,4.69-3.15,2.86-2.86,4.41-6.62,4.41-10.62s-1.57-7.74-4.41-10.58c-2.84-2.84-6.6-4.41-10.58-4.41s-7.77,1.57-10.58,4.41c-2.84,2.84-4.41,6.6-4.41,10.58s1.57,7.74,4.41,10.58c1.36,1.36,2.94,2.43,4.7,3.19v9.35c0,2.31,1.36,4.41,3.47,5.36l15.35,6.86v4.21h-23.74c-3.72,0-7.25,1.46-9.94,4.12-2.66,2.66-4.12,6.19-4.12,9.94v.69h-32.11l-4.35-7.52c1.68-2.5,2.57-5.39,2.57-8.36,0-4.01-1.57-7.77-4.41-10.58-2.84-2.84-6.6-4.41-10.58-4.41s-7.76,1.56-10.58,4.38c-2.78,2.78-4.33,6.46-4.38,10.38-.06.08-.1.19-.1.29,0,3.81,1.44,7.44,4.05,10.22.07.1.22.25.36.4,2.82,2.82,6.58,4.38,10.58,4.38.88,0,1.75-.08,2.6-.23l5.5,9.5c.91,2.04,3.02,3.39,5.34,3.39h35.47v50.62h-24.96c-2.23,0-4.31,1.29-5.29,3.29l-10.04,17.39h-33.57c-.82-2.22-2.1-4.21-3.81-5.91-3.15-3.15-7.35-4.89-11.8-4.89s-8.65,1.74-11.8,4.89c-3.15,3.15-4.89,7.35-4.89,11.8s1.74,8.61,4.89,11.8c3.16,3.16,7.35,4.89,11.8,4.89s8.65-1.74,11.8-4.89c1.71-1.71,2.99-3.7,3.81-5.91h36.94c2.09,0,4.04-1.13,5.08-2.94l10.24-17.74h21.59v20.21c0,3.72,1.46,7.25,4.12,9.94,2.62,2.66,6.16,4.12,9.94,4.12h13.29v15.21c0,3.25,2.64,5.89,5.89,5.89s5.89-2.64,5.89-5.89v-15.21h16.6v15.21c0,3.25,2.64,5.89,5.89,5.89s5.89-2.64,5.89-5.89v-15.21h13.52v15.21ZM368.89,361.6c.87,2.33,2.19,4.35,3.91,6.02,3.16,3.13,7.34,4.85,11.77,4.85h.13c4.5-.04,8.7-1.8,11.83-4.96,3.17-3.2,4.89-7.42,4.86-11.9-.03-4.47-1.79-8.67-4.96-11.83-.15-.15-.29-.29-.44-.4-3.08-2.86-7.16-4.46-11.46-4.46-4.46.03-8.66,1.78-11.83,4.92-.15.15-.29.29-.4.44-1.49,1.61-2.64,3.48-3.4,5.54h-59.41v-35.62l49.6-49.6h5.83c.87,2.28,2.17,4.3,3.87,6.01.15.15.29.29.44.4,3.08,2.86,7.16,4.46,11.46,4.46,4.47-.03,8.67-1.79,11.83-4.96.15-.15.29-.29.4-.44,2.86-3.08,4.46-7.16,4.46-11.46-.03-4.47-1.79-8.67-4.96-11.83-.15-.15-.29-.29-.44-.4-3.08-2.86-7.16-4.46-11.46-4.46-4.47.03-8.67,1.79-11.83,4.96-.15.15-.29.29-.4.44-1.46,1.58-2.64,3.49-3.38,5.51h-8.27c-1.58,0-3.07.62-4.2,1.75l-53.03,53.03c-1.11,1.11-1.72,2.59-1.72,4.17v43.93c0,3.25,2.64,5.89,5.89,5.89h65.31ZM656.09,320.8c-2.22.83-4.28,2.15-5.98,3.85-3.17,3.17-4.92,7.39-4.92,11.86s1.75,8.69,4.92,11.86c3.17,3.18,7.39,4.92,11.86,4.92s8.69-1.75,11.86-4.92c3.17-3.17,4.92-7.39,4.92-11.86s-1.75-8.69-4.92-11.86c-1.71-1.71-3.77-3.03-5.98-3.85v-10.68c0-1.59-.64-3.13-1.75-4.21l-24.65-24.65c-1.14-1.11-2.62-1.73-4.18-1.73-.62,0-1.23.1-1.81.29l-16.12,4.33c-.54-.74-1.16-1.47-1.81-2.12-3.17-3.18-7.39-4.92-11.86-4.92s-8.69,1.75-11.86,4.92c-.06.06-.11.15-.13.23-3.05,3.15-4.73,7.28-4.73,11.67s1.75,8.69,4.92,11.86c3.17,3.18,7.39,4.92,11.86,4.92s8.69-1.75,11.86-4.92c2.76-2.76,4.47-6.39,4.83-10.25l13.1-3.52,20.55,20.55v8.23ZM399.97,277.53c-1.76.75-3.33,1.83-4.69,3.19-2.84,2.84-4.41,6.6-4.41,10.58s1.56,7.76,4.38,10.58c.08.08.16.15.23.21.05.04.09.08.12.11,2.79,2.62,6.42,4.06,10.23,4.06s7.72-1.55,10.58-4.38c2.86-2.86,4.41-6.6,4.41-10.58s-1.54-7.71-4.33-10.53c0,0-.01-.01-.02-.02-.07-.07-.15-.14-.22-.2-.06-.05-.11-.1-.17-.15-1.29-1.2-2.75-2.15-4.34-2.83v-36.51l14.7-21.07,45.13.41,5.89,5.83c-.98,2.19-1.47,4.52-1.47,6.94.03,4.5,1.79,8.7,4.96,11.83,3.16,3.13,7.34,4.86,11.77,4.86h.13c4.5-.04,8.7-1.8,11.83-4.96,3.17-3.2,4.89-7.42,4.86-11.9-.03-4.47-1.79-8.67-4.96-11.83-.15-.15-.29-.29-.44-.4-3.08-2.86-7.16-4.46-11.46-4.46-2.44,0-4.77.52-6.95,1.53l-7.57-7.51c-1.11-1.11-2.6-1.72-4.2-1.72,0,0-50.53-.48-50.53-.48-1.93,0-3.75.94-4.87,2.52l-17.54,25.14c-.68.98-1.05,2.18-1.05,3.36v38.37ZM579.9,248.36c-1.5,1.85-2.61,4.04-3.21,6.37-1.14,4.3-.53,8.81,1.72,12.69,2.24,3.86,5.87,6.62,10.25,7.77,1.39.37,2.83.55,4.27.55,2.94,0,5.86-.79,8.42-2.27,3.86-2.23,6.62-5.87,7.77-10.25,1.11-4.31.54-8.75-1.62-12.53-.03-.06-.08-.14-.14-.22-.03-.04-.05-.07-.07-.11-2.29-3.78-5.89-6.46-10.16-7.6-1.45-.38-2.91-.57-4.35-.57-.93,0-1.85.08-2.74.24l-5.37-9.22c-.86-1.45-2.32-2.47-4.02-2.8l-33.35-8.75c-.49-.12-.99-.18-1.48-.18-1.57,0-3.05.61-4.16,1.73l-11.97,12.1c-.86-.39-1.75-.71-2.65-.94-1.41-.36-2.86-.55-4.31-.55-2.89,0-5.73.75-8.22,2.17-.06.03-.14.08-.22.14-.04.03-.07.05-.11.07-.04.02-.07.04-.1.07-3.68,2.27-6.31,5.84-7.44,10.06-1.11,4.31-.54,8.76,1.62,12.53.03.06.08.14.14.22.02.04.05.07.07.11,2.29,3.78,5.89,6.47,10.16,7.6,1.42.37,2.87.55,4.31.55,2.89,0,5.73-.75,8.22-2.17.06-.03.14-.08.22-.14.04-.03.07-.05.11-.07,3.78-2.29,6.47-5.89,7.6-10.16.99-3.77.63-7.76-1-11.28l9.55-9.68,28.09,7.38,4.17,7.15ZM418.98,415.87c-.61,0-1.19-.24-1.63-.69s-.69-1.02-.69-1.63v-94.97c0-.61.24-1.19.69-1.63s1.02-.69,1.63-.69h95.03c.56,0,1.08.18,1.47.52l.13.14c.44.44.69,1.02.69,1.63v95.03c0,.63-.23,1.21-.65,1.63-.44.41-1.04.66-1.63.66h-95.03ZM433.85,327.52c-3.25,0-5.89,2.64-5.89,5.89v65.28c0,3.25,2.64,5.89,5.89,5.89h65.28c3.25,0,5.89-2.64,5.89-5.89v-65.28c0-3.25-2.64-5.89-5.89-5.89h-65.28ZM439.74,392.8v-53.51h53.51v53.51h-53.51Z"/>
    <path class="st2" d="M481.65,186.35c33.85,0,66.69,6.63,97.6,19.71,29.86,12.63,56.68,30.71,79.71,53.74,23.03,23.03,41.11,49.85,53.74,79.71,13.08,30.91,19.71,63.75,19.71,97.6,0,.52.11,1.02.33,1.52.01.04.02.07.04.11l59.41,135.97c.66,1.54.97,3.05.91,4.5-.06,1.54-.46,3.03-1.21,4.43-.72,1.4-1.7,2.58-2.91,3.49-1.21.89-2.63,1.5-4.22,1.81l-32.03,6.41c-3.84.77-7.21,2.68-9.75,5.54-2.56,2.87-4.09,6.44-4.42,10.33l-9.01,106.61c-.62,7.28-5.84,12.44-15.97,15.77-8.49,2.79-20.56,4.21-35.87,4.21-9.52,0-20.43-.53-33.37-1.62-7.95-.66-15.3-1.43-21.79-2.11l-2.23-.23c-8.59-.91-16.01-1.7-21.04-1.9h-.34s-.29,0-.29,0c-4.12,0-8.31,1.41-11.49,3.86-3.69,2.84-5.81,6.8-5.97,11.16l-1.9,90.36-249.49-66.83c.54-38.97-2.16-71.37-8.24-99.01-5.69-25.84-14.52-48.13-26.24-66.25-.16-.41-.39-.77-.68-1.06l-.02-.02c-4.96-7.53-10.56-14.49-16.62-20.69-12.67-17.57-23-36.73-30.71-56.94-10.89-28.51-16.41-58.6-16.41-89.42,0-33.85,6.63-66.69,19.71-97.6,12.63-29.86,30.71-56.68,53.74-79.71,23.03-23.03,49.85-41.11,79.71-53.74,30.91-13.08,63.75-19.71,97.6-19.71M399.47,277.2c-1.69.77-3.22,1.83-4.55,3.16-2.94,2.94-4.56,6.82-4.56,10.94s1.61,8.02,4.53,10.94c.09.09.17.16.25.23.04.03.07.06.12.11,2.87,2.7,6.62,4.18,10.56,4.18s7.98-1.61,10.93-4.52c0,0,.04-.03.04-.04,2.92-2.92,4.53-6.79,4.53-10.9s-1.6-8.01-4.52-10.93c0,0,0,0-.01-.01,0,0-.01-.01-.02-.02-.06-.06-.12-.11-.18-.16-.05-.04-.1-.08-.17-.16-1.24-1.15-2.64-2.08-4.17-2.78v-36.03l14.46-20.73,44.66.41,5.5,5.45c-.91,2.16-1.38,4.45-1.38,6.84.04,4.63,1.85,8.96,5.11,12.18,3.26,3.23,7.56,5,12.12,5h.13c4.63-.04,8.96-1.85,12.18-5.11,3.26-3.29,5.04-7.65,5-12.25-.04-4.6-1.85-8.92-5.1-12.18-.13-.13-.28-.28-.45-.41-3.21-2.96-7.4-4.6-11.8-4.6-2.39,0-4.69.48-6.84,1.43l-7.33-7.27c-1.2-1.2-2.82-1.87-4.56-1.87h-.12s-50.41-.48-50.41-.48c-2.1,0-4.07,1.02-5.28,2.74l-17.54,25.14c-.73,1.06-1.14,2.36-1.14,3.65v38.04M529.56,234.7c-.78-.34-1.59-.62-2.42-.83-1.45-.38-2.95-.57-4.43-.57-2.97,0-5.89.77-8.45,2.23-.1.05-.19.11-.28.18l-.04.03c-.06.03-.12.07-.17.11-3.77,2.34-6.47,6.01-7.63,10.35-1.14,4.42-.55,9,1.66,12.88.05.1.11.19.18.28l.03.04s.03.05.04.07c2.34,3.85,6.05,6.62,10.45,7.79,1.45.38,2.95.57,4.43.57,2.97,0,5.89-.77,8.45-2.23.1-.05.19-.11.28-.18l.04-.03s.05-.03.07-.04c3.85-2.34,6.62-6.05,7.79-10.44.99-3.77.67-7.75-.89-11.3l9.11-9.23,27.61,7.25,3.9,6.68c-1.43,1.84-2.5,4-3.09,6.28-1.17,4.43-.54,9.07,1.77,13.07,2.3,3.98,6.05,6.82,10.55,8,1.43.38,2.91.57,4.39.57,3.03,0,6.03-.81,8.67-2.34,3.98-2.3,6.82-6.05,8-10.55,1.14-4.42.55-9-1.66-12.88-.05-.1-.11-.19-.18-.28l-.03-.04s-.03-.05-.04-.07c-2.34-3.85-6.05-6.62-10.45-7.79-1.48-.39-2.99-.58-4.47-.58-.84,0-1.67.06-2.48.19l-5.2-8.93c-.92-1.56-2.5-2.66-4.32-3.03l-33.36-8.75c-.53-.13-1.06-.2-1.6-.2-1.71,0-3.31.66-4.52,1.88l-11.73,11.85M460.17,270.34v33.51h-5.12v-7.5c0-2.7-1.71-5.12-4.25-6.03l-14.6-6.52v-4.91c1.67-.76,3.2-1.81,4.54-3.12,0,0,.04-.04.04-.04,2.92-2.92,4.53-6.8,4.53-10.94s-1.62-8-4.56-10.94c-2.94-2.94-6.82-4.56-10.94-4.56s-8.03,1.62-10.94,4.56c-2.94,2.94-4.56,6.82-4.56,10.94s1.62,8,4.56,10.94c1.33,1.33,2.86,2.39,4.55,3.16v9.02c0,2.5,1.48,4.78,3.77,5.82l15.05,6.73v3.39h-23.24c-3.85,0-7.5,1.51-10.29,4.27-2.75,2.75-4.27,6.41-4.27,10.29v.19h-31.32l-4.05-7.01c1.63-2.52,2.48-5.41,2.48-8.38,0-4.15-1.62-8.03-4.56-10.94-2.94-2.94-6.82-4.56-10.94-4.56s-8.02,1.61-10.94,4.53c-2.84,2.84-4.44,6.59-4.52,10.6-.06.13-.1.28-.1.43,0,3.92,1.47,7.65,4.15,10.52.13.17.28.31.41.44,2.92,2.92,6.8,4.53,10.94,4.53.79,0,1.57-.06,2.34-.18l5.3,9.16c1.03,2.24,3.3,3.68,5.8,3.68h34.97v49.62h-24.46c-2.41,0-4.65,1.39-5.72,3.54l-9.89,17.14h-32.94c-.85-2.15-2.13-4.09-3.8-5.77-3.25-3.25-7.57-5.04-12.15-5.04s-8.9,1.79-12.15,5.04c-3.25,3.25-5.04,7.56-5.04,12.15s1.79,8.87,5.04,12.15c3.25,3.25,7.57,5.04,12.15,5.04s8.95-1.84,12.15-5.04c1.67-1.68,2.95-3.61,3.8-5.77h36.59c2.27,0,4.38-1.22,5.52-3.19l10.1-17.49h20.8v19.71c0,3.85,1.51,7.5,4.26,10.29,2.72,2.76,6.38,4.27,10.3,4.27h12.79v14.71c0,3.52,2.87,6.39,6.39,6.39s6.39-2.86,6.39-6.39v-14.71h15.6v14.71c0,3.52,2.86,6.39,6.39,6.39s6.39-2.86,6.39-6.39v-14.71h12.52v14.71c0,3.52,2.86,6.39,6.39,6.39s6.39-2.86,6.39-6.39v-14.71h15.83c3.83,0,7.47-1.51,10.26-4.27,0,0,.03-.03.04-.04,2.75-2.79,4.26-6.43,4.26-10.26v-19.68h20.8l10.1,17.49c1.13,1.97,3.25,3.2,5.52,3.2h36.63c.85,2.15,2.13,4.09,3.8,5.77,3.25,3.25,7.57,5.04,12.15,5.04s8.87-1.79,12.15-5.04c3.25-3.25,5.04-7.57,5.04-12.15s-1.79-8.94-5.04-12.15c-3.25-3.25-7.57-5.04-12.15-5.04s-8.95,1.84-12.15,5.04c-1.67,1.67-2.95,3.61-3.8,5.77h-32.94l-9.89-17.14c-1.06-2.15-3.3-3.55-5.73-3.55h-24.46v-7.46h81.19c.85,2.15,2.13,4.09,3.8,5.77,3.25,3.25,7.57,5.04,12.15,5.04s8.9-1.79,12.15-5.04c3.25-3.25,5.04-7.57,5.04-12.15s-1.79-8.94-5.04-12.15c-3.25-3.25-7.57-5.04-12.15-5.04s-8.95,1.84-12.15,5.04c-1.67,1.67-2.95,3.61-3.8,5.77h-81.19v-8.45h10.09c2.7,0,5.12-1.71,6.03-4.25l8.09-18.13h7.38c.85,2.15,2.13,4.09,3.8,5.77,3.25,3.25,7.56,5.04,12.15,5.04s8.9-1.79,12.15-5.04c3.25-3.25,5.04-7.57,5.04-12.15s-1.79-8.94-5.04-12.15c-3.25-3.25-7.56-5.04-12.15-5.04s-8.95,1.84-12.15,5.04c-1.68,1.67-2.95,3.61-3.8,5.77h-11.49c-2.5,0-4.78,1.48-5.82,3.77l-8.3,18.55h-5.95v-21.16c0-3.85-1.51-7.5-4.27-10.29-.13-.13-.28-.28-.45-.41-2.72-2.49-6.21-3.86-9.85-3.86h-27.77l-.02-3.67,9.93-4.83c2.41,1.48,5.2,2.26,8.08,2.26,4.11,0,8-1.62,10.94-4.56,2.94-2.94,4.56-6.82,4.56-10.94s-1.61-8.02-4.53-10.94c-.08-.08-.16-.15-.24-.22-.05-.04-.1-.08-.17-.16-2.91-2.69-6.66-4.18-10.55-4.18-4.11,0-8,1.62-10.94,4.56-2.94,2.94-4.56,6.82-4.56,10.94,0,.8.07,1.63.21,2.54l-11.94,5.83c-2.2,1.1-3.57,3.31-3.57,5.78l.06,7.59h-.65v-33.51c1.69-.77,3.22-1.83,4.55-3.16,2.94-2.94,4.56-6.82,4.56-10.94s-1.62-8-4.56-10.94c-2.94-2.94-6.82-4.56-10.94-4.56s-8,1.62-10.94,4.56c-2.94,2.94-4.56,6.82-4.56,10.94s1.62,8,4.56,10.94c1.33,1.33,2.86,2.39,4.55,3.16M367.93,246.99c-1.46,1.59-2.59,3.39-3.36,5.35h-7.93c-1.71,0-3.33.67-4.55,1.9l-53.03,53.03c-1.2,1.2-1.86,2.81-1.86,4.52v43.93c0,3.52,2.86,6.39,6.39,6.39h64.97c.9,2.26,2.21,4.23,3.9,5.87,3.26,3.23,7.56,5,12.12,5h.13c4.63-.04,8.96-1.85,12.18-5.11,3.26-3.29,5.04-7.65,5-12.25-.04-4.6-1.85-8.92-5.1-12.18-.13-.13-.28-.28-.45-.41-3.21-2.96-7.4-4.6-11.81-4.6-4.59.04-8.91,1.83-12.18,5.07-.13.13-.28.28-.41.45-1.47,1.6-2.61,3.41-3.38,5.38h-58.57v-34.91l49.3-49.3h5.28c.89,2.22,2.19,4.19,3.86,5.86.13.13.28.28.45.41,3.21,2.96,7.4,4.6,11.81,4.6,4.6-.04,8.92-1.85,12.18-5.1.13-.13.28-.28.41-.45,2.96-3.21,4.6-7.4,4.6-11.81-.04-4.6-1.85-8.92-5.1-12.18-.13-.13-.28-.28-.44-.41-3.21-2.96-7.4-4.6-11.81-4.6-4.6.04-8.92,1.85-12.18,5.11-.13.13-.28.28-.41.44M593.24,282c-3.09,3.23-4.79,7.46-4.79,11.93s1.8,8.95,5.07,12.22c3.27,3.27,7.61,5.07,12.22,5.07s8.95-1.8,12.22-5.07c2.76-2.76,4.5-6.36,4.94-10.21l12.49-3.36,20.2,20.2v7.68c-2.17.86-4.17,2.17-5.83,3.84-3.27,3.27-5.07,7.61-5.07,12.22s1.8,8.95,5.07,12.22c3.27,3.27,7.61,5.07,12.22,5.07s8.95-1.8,12.22-5.07c3.27-3.27,5.07-7.61,5.07-12.22s-1.8-8.95-5.07-12.22c-1.67-1.67-3.68-2.99-5.83-3.84v-10.33c0-1.73-.7-3.39-1.9-4.55l-24.66-24.66c-1.23-1.2-2.84-1.86-4.53-1.86-.66,0-1.31.1-1.94.3l-15.79,4.24c-.5-.67-1.07-1.32-1.65-1.9-3.27-3.27-7.61-5.07-12.22-5.07s-8.95,1.8-12.22,5.07c-.09.09-.16.2-.21.32M264.58,371.28l-7.3,7.3c-1.2,1.2-1.86,2.81-1.86,4.52v34.88c0,2.43,1.39,4.67,3.54,5.73l14.05,8.1c-.13.85-.19,1.68-.19,2.53,0,4.63,1.79,8.97,5.07,12.25,2.41,2.41,5.39,4.02,8.63,4.7-3.26.67-6.26,2.28-8.67,4.69-3.2,3.2-5.04,7.63-5.04,12.15s1.79,8.9,5.03,12.15c3.22,3.25,7.53,5.04,12.16,5.04,2.39,0,4.67-.46,6.77-1.37l15.95,15.95v32.17c-2.15.85-4.09,2.13-5.77,3.8-3.2,3.2-5.04,7.63-5.04,12.15s1.79,8.9,5.04,12.16c3.28,3.25,7.6,5.03,12.15,5.03s8.9-1.79,12.15-5.04c3.2-3.2,5.04-7.63,5.04-12.15s-1.79-8.9-5.04-12.15c-1.67-1.67-3.61-2.95-5.77-3.8v-34.83c0-1.71-.66-3.32-1.86-4.52l-17.82-17.82c.91-2.16,1.38-4.44,1.38-6.77,0-4.59-1.79-8.9-5.04-12.15-2.39-2.39-5.35-3.98-8.57-4.67,3.28-.67,6.3-2.29,8.73-4.72,3.25-3.28,5.03-7.62,5.03-12.21.04-4.6-1.75-8.94-5.04-12.22-3.27-3.27-7.61-5.07-12.22-5.07-3.9,0-7.67,1.32-10.71,3.73l-11.21-6.48v-28.57l5.44-5.44c2.15.92,4.5,1.41,6.84,1.41,4.61,0,8.95-1.8,12.22-5.07,3.27-3.27,5.07-7.61,5.07-12.22s-1.8-8.95-5.07-12.22-7.61-5.07-12.22-5.07-8.95,1.8-12.22,5.07c-3.27,3.27-5.07,7.61-5.07,12.22,0,2.33.48,4.68,1.41,6.84M664.73,386.97v21.46l-33.09,33.09-15.68,4.21c-.5-.67-1.07-1.32-1.65-1.9-3.27-3.27-7.61-5.07-12.22-5.07s-8.86,1.76-12.12,4.97c-.01.01-.02.02-.04.03-3.27,3.27-5.07,7.61-5.07,12.22s1.8,8.95,5.07,12.22c3.27,3.27,7.61,5.07,12.22,5.07s8.95-1.8,12.22-5.07c2.76-2.76,4.5-6.36,4.94-10.21l17.06-4.56c1.18-.24,2.26-.83,3.14-1.71l36.1-36.1c1.22-1.22,1.9-2.84,1.9-4.55v-24.09c2.17-.86,4.17-2.17,5.83-3.84,3.27-3.27,5.07-7.61,5.07-12.22s-1.8-8.95-5.07-12.22c-3.27-3.27-7.61-5.07-12.22-5.07s-8.95,1.8-12.22,5.07c-3.27,3.27-5.07,7.61-5.07,12.22s1.8,8.95,5.07,12.22c1.67,1.67,3.68,2.99,5.83,3.84M377.34,442.09l-34.07,37.64c-1.28,1.22-2.02,2.92-2.02,4.68v89.69c-2.15.85-4.09,2.13-5.77,3.8-.05.05-.09.1-.13.16-3.17,3.23-4.91,7.5-4.91,12.03s1.79,8.94,5.04,12.15c3.25,3.25,7.56,5.04,12.15,5.04s8.94-1.79,12.15-5.04c3.25-3.25,5.04-7.57,5.04-12.15s-1.79-8.9-5.04-12.15c-1.67-1.67-3.61-2.95-5.77-3.8v-87.26l32.75-36.2c1.92.71,3.94,1.07,6.01,1.07,1.79,0,3.58-.29,5.3-.84-.92,2.12-1.39,4.44-1.39,6.82,0,3.09.81,6.07,2.35,8.66l-27.88,35.72c-.85,1.1-1.32,2.44-1.36,3.91v32.55c-2.15.85-4.09,2.13-5.77,3.8-3.25,3.25-5.04,7.56-5.04,12.15s1.79,8.87,5.04,12.15c3.25,3.25,7.57,5.04,12.15,5.04s8.91-1.79,12.15-5.04c3.25-3.25,5.04-7.57,5.04-12.15s-1.84-8.95-5.04-12.15c-1.68-1.68-3.61-2.95-5.77-3.8v-30.38l26.52-33.97c1.55.45,3.16.67,4.8.67,4.62,0,8.94-1.79,12.15-5.04,3.25-3.25,5.04-7.57,5.04-12.15s-1.84-8.95-5.04-12.15c-3.25-3.25-7.57-5.04-12.15-5.04-1.79,0-3.58.29-5.3.84.92-2.12,1.39-4.44,1.39-6.82,0-4.59-1.79-8.91-5.04-12.15-3.25-3.25-7.56-5.04-12.15-5.04s-8.95,1.84-12.15,5.04c-3.25,3.25-5.04,7.57-5.04,12.15,0,2.62.6,5.22,1.75,7.57M559.18,465.56v7.67l-20.2,20.2-12.49-3.36c-.44-3.85-2.18-7.45-4.94-10.21-3.27-3.27-7.61-5.07-12.22-5.07s-8.95,1.8-12.22,5.07c-3.27,3.27-5.07,7.61-5.07,12.22s1.8,8.95,5.07,12.22c3.19,3.19,7.4,4.98,11.89,5.07.09.02.17.04.27.04,4.61,0,8.95-1.8,12.2-5.05.57-.55,1.12-1.18,1.67-1.92l15.79,4.24c.63.2,1.28.3,1.95.3,1.71,0,3.32-.66,4.53-1.87l24.66-24.66c1.22-1.22,1.9-2.84,1.9-4.55v-10.34c2.17-.86,4.17-2.17,5.83-3.84,3.27-3.27,5.07-7.61,5.07-12.22s-1.8-8.95-5.07-12.22c-3.27-3.27-7.61-5.07-12.22-5.07s-8.95,1.8-12.22,5.07c-3.27,3.27-5.07,7.61-5.07,12.22s1.8,8.95,5.07,12.22c1.67,1.67,3.68,2.99,5.83,3.84M462.77,495.41v7.67l-20.2,20.2-12.49-3.36c-.44-3.85-2.18-7.45-4.94-10.21-3.27-3.27-7.61-5.07-12.22-5.07s-8.95,1.8-12.22,5.07c-3.27,3.27-5.07,7.61-5.07,12.22s1.8,8.95,5.07,12.22c3.19,3.19,7.4,4.98,11.89,5.07.09.02.17.04.27.04,4.61,0,8.95-1.8,12.2-5.05.57-.55,1.12-1.18,1.67-1.92l15.79,4.24c.63.2,1.28.3,1.95.3,1.71,0,3.32-.66,4.53-1.87l24.66-24.66c1.22-1.22,1.9-2.84,1.9-4.55v-10.33c2.15-.85,4.16-2.16,5.83-3.84,3.27-3.27,5.07-7.61,5.07-12.22s-1.8-8.95-5.07-12.22c-3.27-3.27-7.61-5.07-12.22-5.07s-8.95,1.8-12.22,5.07c-3.27,3.27-5.07,7.61-5.07,12.22s1.8,8.95,5.07,12.22c1.67,1.67,3.68,2.99,5.83,3.84M514.01,316.76c.43,0,.82.13,1.12.38l.13.13c.35.35.54.8.54,1.28v95.03c0,.5-.18.95-.49,1.26-.36.34-.84.53-1.3.53h-95.03c-.48,0-.93-.19-1.28-.54-.35-.35-.54-.8-.54-1.28v-88.42s0,0,0-.01v-6.54c0-.48.19-.93.54-1.28.35-.35.8-.54,1.28-.54h95.03M433.85,405.07h65.28c3.52,0,6.39-2.86,6.39-6.39v-65.28c0-3.52-2.87-6.39-6.39-6.39h-65.28c-3.52,0-6.39,2.87-6.39,6.39v65.28c0,3.52,2.86,6.39,6.39,6.39M492.75,339.79v52.51h-52.51v-52.51h52.51M481.65,185.35c-69.51,0-132.45,28.18-178.02,73.74-45.56,45.56-73.74,108.5-73.74,178.02,0,31.65,5.84,61.91,16.48,89.78,7.82,20.52,18.24,39.73,30.88,57.23,6.22,6.35,11.74,13.27,16.61,20.68l.1.1c.22.22.38.51.48.8,12.63,19.49,20.91,42.13,26.16,66.02,7.15,32.48,8.69,67.3,8.21,99.56l251.47,67.36,1.92-91.64c.16-4.3,2.37-7.92,5.58-10.39,3.01-2.32,6.93-3.66,10.88-3.66.09,0,.18,0,.28,0h.35c4.91.19,12.18.96,20.94,1.89,7.09.74,15.17,1.6,24.05,2.34,10.88.92,22.44,1.63,33.45,1.63,27.44,0,51.44-4.4,52.84-20.9l9.01-106.61c.32-3.75,1.83-7.12,4.17-9.75,2.34-2.63,5.51-4.49,9.2-5.23l32.03-6.41c1.76-.35,3.3-1.03,4.62-1.99,1.31-.99,2.4-2.28,3.21-3.85.83-1.57,1.25-3.21,1.31-4.84.06-1.64-.29-3.3-.99-4.94l-59.41-135.98.04.05c-.19-.38-.32-.8-.32-1.28,0-69.51-28.18-132.45-73.74-178.02-45.56-45.56-108.5-73.74-178.02-73.74h0ZM405.83,305.76c-3.82,0-7.28-1.47-9.88-3.91-.1-.1-.22-.19-.35-.32-2.6-2.6-4.23-6.22-4.23-10.23s1.64-7.6,4.26-10.23c1.38-1.38,3.01-2.47,4.84-3.21v-38.7c0-1.06.32-2.15.96-3.08l17.54-25.14c.99-1.41,2.63-2.31,4.46-2.31l50.4.48s.08,0,.13,0c1.4,0,2.79.51,3.85,1.57l7.82,7.76c2.21-1.09,4.62-1.64,7.05-1.64,4.01,0,8.02,1.44,11.16,4.36.13.1.26.22.38.35,3.17,3.17,4.78,7.31,4.81,11.48.03,4.17-1.54,8.34-4.71,11.54-3.14,3.17-7.31,4.78-11.48,4.81-.04,0-.08,0-.12,0-4.13,0-8.24-1.57-11.42-4.71-3.17-3.14-4.78-7.31-4.81-11.48,0-2.4.51-4.81,1.57-7.05l-6.28-6.22-45.59-.42-14.94,21.42v37c1.67.67,3.17,1.64,4.49,2.85.12.12.24.21.35.32,0,0,0,0,0,0h0s.02.02.03.03l-.03-.03s0,0,0,0c2.6,2.6,4.23,6.22,4.23,10.23s-1.6,7.57-4.23,10.2l-.03.03c-2.63,2.6-6.25,4.23-10.23,4.23h0ZM529.78,235.9l12.22-12.34c1-1,2.37-1.58,3.81-1.58.45,0,.9.05,1.35.17l33.38,8.75c1.47.29,2.85,1.15,3.69,2.56l5.55,9.52c.99-.2,2-.29,3-.29,1.42,0,2.84.19,4.22.55,3.98,1.06,7.57,3.59,9.84,7.34.06.13.16.22.22.35,2.18,3.82,2.6,8.18,1.57,12.15-1.06,4.04-3.66,7.69-7.53,9.94-2.58,1.49-5.4,2.2-8.17,2.2-1.4,0-2.79-.18-4.14-.54-4.04-1.06-7.7-3.66-9.94-7.53-2.24-3.88-2.73-8.3-1.67-12.31.61-2.34,1.73-4.55,3.33-6.44l-4.46-7.63-28.57-7.5-10,10.13c1.76,3.59,2.08,7.6,1.12,11.25-1.06,3.98-3.59,7.57-7.34,9.84-.13.06-.22.16-.35.22-2.51,1.43-5.25,2.1-7.97,2.1-1.41,0-2.82-.18-4.18-.53-3.98-1.06-7.57-3.59-9.84-7.34-.06-.13-.16-.22-.22-.35-2.18-3.82-2.6-8.18-1.57-12.15,1.06-3.98,3.59-7.57,7.34-9.84l-.06.03c.13-.06.22-.16.35-.22,2.51-1.43,5.25-2.1,7.97-2.1,1.41,0,2.82.18,4.18.53.99.26,1.96.61,2.89,1.06h0ZM454.05,304.86h7.12v-35.17c-1.83-.74-3.46-1.83-4.84-3.21-2.63-2.63-4.26-6.25-4.26-10.23s1.64-7.6,4.26-10.23c2.63-2.63,6.25-4.26,10.23-4.26s7.6,1.64,10.23,4.26c2.63,2.63,4.26,6.25,4.26,10.23s-1.64,7.6-4.26,10.23c-1.38,1.38-3.01,2.47-4.84,3.21v35.17h2.66l-.06-8.59c0-2.15,1.22-3.98,3.01-4.87l12.6-6.16c-.19-1.03-.32-2.05-.32-3.11,0-3.98,1.64-7.6,4.26-10.23,2.63-2.63,6.25-4.26,10.23-4.26s7.28,1.51,9.88,3.91c.13.13.26.22.38.35,2.6,2.6,4.23,6.22,4.23,10.23s-1.64,7.6-4.26,10.23c-2.63,2.63-6.25,4.26-10.23,4.26-2.98,0-5.71-.87-8.02-2.4l-11,5.35.03,5.29h28.76c3.53,0,6.77,1.38,9.2,3.62.13.1.26.22.38.35,2.44,2.47,3.98,5.84,3.98,9.59v22.16h7.6l8.56-19.14c.9-1.99,2.85-3.17,4.91-3.17h12.18c.8-2.31,2.12-4.36,3.82-6.06,2.92-2.92,6.99-4.75,11.45-4.75s8.53,1.83,11.45,4.75c2.95,2.92,4.75,6.99,4.75,11.45s-1.83,8.53-4.75,11.45c-2.92,2.92-6.99,4.75-11.45,4.75s-8.53-1.83-11.45-4.75c-1.7-1.7-3.01-3.75-3.82-6.06h-8.72l-8.37,18.76c-.74,2.12-2.76,3.62-5.1,3.62h-11.09v10.45h82.89c.8-2.31,2.12-4.36,3.82-6.06,2.92-2.92,6.99-4.75,11.45-4.75s8.53,1.83,11.45,4.75c2.95,2.92,4.75,6.99,4.75,11.45s-1.83,8.53-4.75,11.45c-2.92,2.92-6.99,4.75-11.45,4.75s-8.53-1.83-11.45-4.75c-1.7-1.7-3.01-3.75-3.82-6.06h-82.89v9.46h25.46c2.12,0,3.98,1.22,4.84,3.01l10.2,17.67h34.21c.8-2.31,2.12-4.36,3.82-6.06,2.92-2.92,6.99-4.75,11.45-4.75s8.53,1.83,11.45,4.75c2.95,2.92,4.75,6.99,4.75,11.45s-1.83,8.53-4.75,11.45c-2.95,2.92-6.99,4.75-11.45,4.75s-8.53-1.83-11.45-4.75c-1.7-1.7-3.01-3.75-3.82-6.06h-37.32c-1.86,0-3.66-.96-4.65-2.69l-10.39-17.99h-22.38v20.68c0,3.72-1.54,7.09-3.98,9.56l-.03.03c-2.47,2.44-5.84,3.98-9.56,3.98h-16.83v15.71c0,2.98-2.4,5.39-5.39,5.39s-5.39-2.4-5.39-5.39v-15.71h-14.52v15.71c0,2.98-2.4,5.39-5.39,5.39s-5.39-2.4-5.39-5.39v-15.71h-17.6v15.71c0,2.98-2.4,5.39-5.39,5.39s-5.39-2.4-5.39-5.39v-15.71h-13.79c-3.75,0-7.15-1.51-9.59-3.98-2.44-2.47-3.98-5.87-3.98-9.59v-20.71h-22.38l-10.39,17.99c-.99,1.73-2.79,2.69-4.65,2.69h-37.29c-.8,2.31-2.12,4.36-3.82,6.06-2.92,2.92-6.99,4.75-11.45,4.75s-8.53-1.83-11.45-4.75c-2.92-2.95-4.75-6.99-4.75-11.45s1.83-8.53,4.75-11.45c2.92-2.92,6.99-4.75,11.45-4.75s8.53,1.83,11.45,4.75c1.7,1.7,3.01,3.75,3.82,6.06h34.21l10.2-17.67c.87-1.76,2.73-3.01,4.84-3.01h25.46v-51.62h-35.97c-2.18,0-4.07-1.28-4.91-3.14l-5.68-9.81c-.93.19-1.89.29-2.85.29-3.98,0-7.6-1.6-10.23-4.23-.13-.13-.26-.26-.35-.38-2.44-2.6-3.91-6.06-3.91-9.88l.09-.1c0-3.98,1.6-7.6,4.23-10.23,2.6-2.6,6.22-4.23,10.23-4.23s7.6,1.64,10.23,4.26c2.63,2.6,4.26,6.22,4.26,10.23,0,3.11-.99,5.96-2.66,8.34l4.65,8.05h32.9v-1.19c0-3.75,1.51-7.12,3.98-9.59,2.47-2.44,5.84-3.98,9.59-3.98h24.24v-5.03l-15.65-6.99c-1.99-.9-3.17-2.85-3.17-4.91v-9.68c-1.83-.74-3.46-1.83-4.84-3.21-2.63-2.63-4.26-6.25-4.26-10.23s1.64-7.6,4.26-10.23c2.6-2.63,6.22-4.26,10.23-4.26s7.6,1.64,10.23,4.26c2.63,2.63,4.26,6.25,4.26,10.23s-1.6,7.6-4.23,10.23l-.03.03c-1.38,1.35-3.01,2.44-4.84,3.17v6.22l15.23,6.8c2.12.74,3.62,2.76,3.62,5.1v8.5h0ZM303.58,361.1c-2.98,0-5.39-2.4-5.39-5.39v-43.93c0-1.38.51-2.76,1.57-3.82l53.03-53.03c.99-.99,2.34-1.6,3.85-1.6h8.63c.71-2.05,1.86-4.01,3.43-5.71.1-.13.22-.26.35-.38,3.17-3.17,7.31-4.78,11.48-4.81,4.01,0,8.02,1.44,11.16,4.36.13.1.26.22.38.35,3.17,3.17,4.78,7.31,4.81,11.48,0,4.01-1.44,8.02-4.36,11.16-.1.13-.22.26-.35.38-3.17,3.17-7.31,4.78-11.48,4.81-4.01,0-8.02-1.44-11.16-4.36-.13-.1-.26-.22-.38-.35-1.8-1.8-3.08-3.91-3.88-6.16h-6.38l-49.89,49.89v36.33h60.28v-.03c.7-2.05,1.86-4.01,3.43-5.71.1-.13.22-.26.35-.38,3.17-3.14,7.31-4.75,11.48-4.78,4.01,0,8.02,1.44,11.16,4.36.13.1.26.22.38.35,3.17,3.17,4.78,7.31,4.81,11.48.03,4.17-1.54,8.34-4.71,11.54-3.14,3.17-7.31,4.78-11.48,4.81-.04,0-.08,0-.13,0-4.13,0-8.24-1.57-11.42-4.71-1.83-1.76-3.11-3.88-3.91-6.16h-65.66ZM605.74,310.22c-4.49,0-8.56-1.83-11.51-4.78-2.95-2.95-4.78-7.02-4.78-11.51s1.83-8.56,4.78-11.51l-.06-.03c2.95-2.95,7.02-4.78,11.51-4.78s8.56,1.83,11.51,4.78c.71.71,1.38,1.51,1.96,2.34l16.48-4.42c.54-.18,1.1-.26,1.66-.26,1.38,0,2.75.53,3.83,1.58l24.66,24.66c.99.96,1.6,2.34,1.6,3.85v11.03c2.34.8,4.42,2.15,6.12,3.85,2.95,2.95,4.78,7.02,4.78,11.51s-1.83,8.56-4.78,11.51c-2.95,2.95-7.02,4.78-11.51,4.78s-8.56-1.83-11.51-4.78c-2.95-2.95-4.78-7.02-4.78-11.51s1.83-8.56,4.78-11.51c1.7-1.7,3.82-3.05,6.12-3.85v-8.79l-20.91-20.91-13.72,3.69c-.29,4.01-2.05,7.63-4.71,10.29-2.95,2.95-7.02,4.78-11.51,4.78h0ZM290.12,450.66c-4.17,0-8.34-1.6-11.51-4.78l-.03-.03c-3.17-3.17-4.75-7.34-4.75-11.51,0-1.03.1-2.02.29-3.05l-14.69-8.46c-1.8-.87-3.01-2.73-3.01-4.84v-34.88c0-1.38.51-2.76,1.57-3.82l7.79-7.79c-1.06-2.21-1.6-4.65-1.6-7.05,0-4.17,1.6-8.34,4.78-11.51,3.17-3.17,7.34-4.78,11.51-4.78s8.34,1.6,11.51,4.78c3.17,3.17,4.78,7.34,4.78,11.51s-1.6,8.34-4.78,11.51c-3.17,3.17-7.34,4.78-11.51,4.78-2.4,0-4.84-.55-7.05-1.6l-6.22,6.22v29.56l12.31,7.12c3.05-2.63,6.83-3.94,10.61-3.94,4.17,0,8.34,1.6,11.51,4.78,3.17,3.17,4.78,7.34,4.75,11.51,0,4.17-1.6,8.34-4.75,11.51-3.17,3.17-7.34,4.78-11.51,4.78h0ZM615.55,446.88l16.61-4.46,33.57-33.57v-22.57c-2.34-.8-4.42-2.15-6.12-3.85-2.95-2.95-4.78-7.02-4.78-11.51s1.83-8.56,4.78-11.51c2.95-2.95,7.02-4.78,11.51-4.78s8.56,1.83,11.51,4.78c2.95,2.95,4.78,7.02,4.78,11.51s-1.83,8.56-4.78,11.51c-1.7,1.7-3.82,3.05-6.12,3.85v24.78c0,1.51-.61,2.85-1.6,3.85l-36.1,36.1c-.77.77-1.7,1.25-2.66,1.44l-17.76,4.75c-.29,4.01-2.05,7.63-4.71,10.29-2.95,2.95-7.02,4.78-11.51,4.78s-8.56-1.83-11.51-4.78c-2.95-2.95-4.78-7.02-4.78-11.51s1.83-8.56,4.78-11.51l-.06.06c2.95-2.95,7.02-4.78,11.51-4.78s8.56,1.83,11.51,4.78c.71.71,1.38,1.51,1.96,2.34h0ZM347.64,606.28c-4.46,0-8.53-1.83-11.45-4.75-2.95-2.92-4.75-6.99-4.75-11.45s1.83-8.53,4.75-11.45v-.03c1.7-1.7,3.75-3.01,6.06-3.82v-90.39c0-1.57.67-2.98,1.73-3.98l34.56-38.19c-1.25-2.31-1.96-4.94-1.96-7.73,0-4.49,1.83-8.53,4.75-11.45,2.92-2.92,6.99-4.75,11.45-4.75s8.53,1.83,11.45,4.75c2.92,2.92,4.75,6.99,4.75,11.45,0,3.24-.93,6.28-2.6,8.82,2.24-1.15,4.81-1.83,7.5-1.83,4.46,0,8.53,1.83,11.45,4.75s4.75,6.99,4.75,11.45-1.83,8.53-4.75,11.45c-2.92,2.95-6.99,4.75-11.45,4.75-1.8,0-3.53-.29-5.16-.83l-27.16,34.79v31.42c2.31.8,4.36,2.12,6.06,3.82,2.92,2.92,4.75,6.99,4.75,11.45s-1.83,8.53-4.75,11.45c-2.92,2.92-6.99,4.75-11.45,4.75s-8.53-1.83-11.45-4.75c-2.92-2.95-4.75-6.99-4.75-11.45s1.83-8.53,4.75-11.45c1.7-1.7,3.75-3.01,6.06-3.82v-33.25c.03-1.15.38-2.31,1.15-3.3l28.31-36.26c-1.64-2.5-2.57-5.51-2.57-8.72s.93-6.28,2.6-8.82c-2.24,1.15-4.81,1.83-7.5,1.83-2.24,0-4.36-.45-6.28-1.25l-33.47,37v88.34c2.31.8,4.36,2.12,6.06,3.82,2.92,2.92,4.75,6.99,4.75,11.45s-1.83,8.53-4.75,11.45c-2.92,2.95-6.99,4.75-11.45,4.75h0ZM539.27,494.55l20.91-20.91v-8.79c-2.34-.8-4.42-2.15-6.12-3.85-2.95-2.95-4.78-7.02-4.78-11.51s1.83-8.56,4.78-11.51c2.95-2.95,7.02-4.78,11.51-4.78s8.56,1.83,11.51,4.78c2.95,2.95,4.78,7.02,4.78,11.51s-1.83,8.56-4.78,11.51c-1.7,1.7-3.82,3.05-6.12,3.85v11.03c0,1.51-.61,2.85-1.6,3.85l-24.66,24.66c-1.05,1.05-2.44,1.58-3.82,1.58-.56,0-1.12-.09-1.66-.26l-16.48-4.42c-.58.83-1.22,1.64-1.96,2.34-2.95,2.95-7.02,4.78-11.51,4.78l.06-.03c-4.49,0-8.56-1.83-11.51-4.78-2.95-2.95-4.78-7.02-4.78-11.51s1.83-8.56,4.78-11.51c2.95-2.95,7.02-4.78,11.51-4.78s8.56,1.83,11.51,4.78c2.69,2.69,4.42,6.28,4.71,10.29l13.72,3.69h0ZM290.02,484.32c-4.46,0-8.53-1.8-11.45-4.75-2.92-2.92-4.75-6.96-4.75-11.45s1.83-8.53,4.75-11.45c2.92-2.92,6.96-4.75,11.45-4.75s8.53,1.83,11.45,4.75c2.92,2.92,4.75,6.96,4.75,11.45,0,2.5-.58,4.87-1.57,6.99l18.31,18.31c1.06,1.06,1.57,2.44,1.57,3.82v35.53c2.31.8,4.36,2.12,6.06,3.82,2.92,2.92,4.75,6.96,4.75,11.45s-1.83,8.53-4.75,11.45c-2.92,2.92-6.96,4.75-11.45,4.75s-8.5-1.83-11.45-4.75c-2.92-2.92-4.75-6.99-4.75-11.45s1.83-8.53,4.75-11.45h0s0,0,0,0c0,0,0,0,0,0,1.7-1.7,3.75-3.01,6.06-3.82v-33.28l-16.74-16.74c-2.12,1.03-4.49,1.57-6.99,1.57h0ZM442.86,524.4l20.91-20.91v-8.79c-2.34-.8-4.42-2.15-6.12-3.85-2.95-2.95-4.78-7.02-4.78-11.51s1.83-8.56,4.78-11.51c2.95-2.95,7.02-4.78,11.51-4.78s8.56,1.83,11.51,4.78c2.95,2.95,4.78,7.02,4.78,11.51s-1.83,8.56-4.78,11.51c-1.7,1.7-3.78,3.05-6.12,3.85v11.03c0,1.51-.61,2.85-1.6,3.85l-24.66,24.66c-1.05,1.05-2.44,1.58-3.82,1.58-.56,0-1.12-.09-1.66-.26l-16.48-4.42c-.58.83-1.22,1.64-1.96,2.34-2.95,2.95-7.02,4.78-11.51,4.78l.06-.03c-4.49,0-8.56-1.83-11.51-4.78-2.95-2.95-4.78-7.02-4.78-11.51s1.83-8.56,4.78-11.51c2.95-2.95,7.02-4.78,11.51-4.78s8.56,1.83,11.51,4.78c2.69,2.69,4.42,6.28,4.71,10.29l13.72,3.69h0ZM514.01,315.76h-95.03c-.77,0-1.47.32-1.99.83-.51.51-.83,1.22-.83,1.99v6.54-.06s0,88.49,0,88.49c0,.77.32,1.47.83,1.99.51.51,1.22.83,1.99.83h95.03c.77,0,1.47-.32,1.99-.8.51-.51.8-1.22.8-1.99v-95.03c0-.77-.32-1.47-.83-1.99l-.16-.16c-.48-.42-1.12-.64-1.8-.64h0ZM433.85,404.07c-2.98,0-5.39-2.4-5.39-5.39v-65.28c0-2.98,2.4-5.39,5.39-5.39h65.28c2.98,0,5.39,2.4,5.39,5.39v65.28c0,2.98-2.4,5.39-5.39,5.39h-65.28ZM493.75,338.79h-54.51v54.51h54.51v-54.51h0Z"/>
  </g>
</svg>