<?xml version="1.0" encoding="UTF-8"?>
<svg id="Camada_1" xmlns="http://www.w3.org/2000/svg" version="1.1" xmlns:xlink="http://www.w3.org/1999/xlink" viewBox="0 0 1024 1024">
  <!-- Generator: Adobe Illustrator 29.5.1, SVG Export Plug-In . SVG Version: 2.1.0 Build 141)  -->
  <defs>
    <style>
      .st0 {
        fill: url(#Gradiente_sem_nome_701);
      }

      .st0, .st1, .st2, .st3, .st4 {
        fill-rule: evenodd;
      }

      .st0, .st1, .st2, .st3, .st4, .st5 {
        stroke: #fff;
        stroke-miterlimit: 10;
      }

      .st6 {
        fill: url(#Gradiente_sem_nome_421);
      }

      .st1 {
        fill: url(#Gradiente_sem_nome_70);
      }

      .st7 {
        fill: url(#Gradiente_sem_nome_42);
      }

      .st2 {
        fill: url(#Gradiente_sem_nome_704);
      }

      .st3 {
        fill: url(#Gradiente_sem_nome_703);
      }

      .st4 {
        fill: url(#Gradiente_sem_nome_702);
      }

      .st8 {
        fill: url(#Gradiente_sem_nome_60);
      }

      .st5 {
        fill: none;
        stroke-width: .25px;
      }
    </style>
    <radialGradient id="Gradiente_sem_nome_42" data-name="Gradiente sem nome 42" cx="113.54" cy="26.95" fx="113.54" fy="26.95" r="912.42" gradientTransform="translate(56.72 -80.79) rotate(40.98) scale(1 1.64)" gradientUnits="userSpaceOnUse">
      <stop offset="0" stop-color="#fff"/>
      <stop offset=".48" stop-color="#f5f5f5" stop-opacity="0"/>
      <stop offset="1" stop-color="#f5f5f5" stop-opacity="0"/>
    </radialGradient>
    <radialGradient id="Gradiente_sem_nome_421" data-name="Gradiente sem nome 42" cx="1060.39" cy="1028.69" fx="1060.39" fy="1028.69" r="1188.04" gradientTransform="translate(1750.84 -1092.91) rotate(46.4) scale(1 1.91)" xlink:href="#Gradiente_sem_nome_42"/>
    <radialGradient id="Gradiente_sem_nome_60" data-name="Gradiente sem nome 60" cx="514.24" cy="509.98" fx="514.24" fy="509.98" r="620.31" gradientUnits="userSpaceOnUse">
      <stop offset="0" stop-color="#fff" stop-opacity=".3"/>
      <stop offset=".66" stop-color="#f5f5f5" stop-opacity="0"/>
      <stop offset="1" stop-color="#f5f5f5"/>
    </radialGradient>
    <radialGradient id="Gradiente_sem_nome_70" data-name="Gradiente sem nome 70" cx="215.38" cy="851.65" fx="215.38" fy="851.65" r="862.87" gradientUnits="userSpaceOnUse">
      <stop offset="0" stop-color="#f5f5f5" stop-opacity=".5"/>
      <stop offset=".85" stop-color="#fff"/>
    </radialGradient>
    <radialGradient id="Gradiente_sem_nome_701" data-name="Gradiente sem nome 70" cx="215.38" cy="851.65" fx="215.38" fy="851.65" r="862.87" xlink:href="#Gradiente_sem_nome_70"/>
    <radialGradient id="Gradiente_sem_nome_702" data-name="Gradiente sem nome 70" cx="215.38" cy="851.65" fx="215.38" fy="851.65" r="862.87" xlink:href="#Gradiente_sem_nome_70"/>
    <radialGradient id="Gradiente_sem_nome_703" data-name="Gradiente sem nome 70" cx="215.38" cy="851.65" fx="215.38" fy="851.65" r="862.87" xlink:href="#Gradiente_sem_nome_70"/>
    <radialGradient id="Gradiente_sem_nome_704" data-name="Gradiente sem nome 70" cx="215.38" cy="851.65" fx="215.38" fy="851.65" r="862.87" xlink:href="#Gradiente_sem_nome_70"/>
  </defs>
  <circle class="st7" cx="512.7" cy="512.7" r="511.3"/>
  <circle class="st6" cx="512.7" cy="512.7" r="511.3"/>
  <circle class="st8" cx="512.7" cy="512.7" r="511.3"/>
  <circle class="st5" cx="512.7" cy="512.7" r="511.3"/>
  <g>
    <path class="st1" d="M611.21,783.49l14.07,56.29h-225.16l14.07-56.29h197.01Z"/>
    <path class="st0" d="M627.46,276.88H203.13c-15.55,0-28.16,12.8-28.16,28.14v422.17c0,15.54,12.59,28.14,28.16,28.14h619.14c15.55,0,28.16-12.8,28.16-28.14v-422.17c0-9.46-4.66-17.83-11.83-22.93l-25.8,22.93h9.48v394.02H203.11v-394.02h399.33l25.02-28.14Z"/>
    <path class="st4" d="M653.42,825.7c0-7.77-6.41-14.07-14.34-14.07h-252.76c-7.92,0-14.34,6.53-14.34,14.07s6.41,14.07,14.34,14.07h252.76c7.92,0,14.34-6.53,14.34-14.07Z"/>
    <g>
      <path class="st3" d="M345.27,606.72c49.98,40.09,126.4,7.68,148.38-14.3,21.98-21.98,21.98-57.62,0-79.61-21.98-21.98-57.62-21.98-79.61,0-21.98,21.98-23.83,76.77-68.78,93.91Z"/>
      <path class="st2" d="M528.65,519.96l295-262.23c23.39-20.79,24.33-55.28,2.34-77.27-22.14-22.14-56.58-20.93-77.27,2.34l-262.23,295,42.14,42.14Z"/>
    </g>
  </g>
</svg>