<?xml version="1.0" encoding="UTF-8"?>
<svg id="Camada_1" xmlns="http://www.w3.org/2000/svg" version="1.1" viewBox="0 0 1024 1024">
  <!-- Generator: Adobe Illustrator 29.0.0, SVG Export Plug-In . SVG Version: 2.1.0 Build 186)  -->
  <defs>
    <style>
      .st0 {
        fill: #fff;
      }
    </style>
  </defs>
  <path class="st0" d="M894.8,47H129.2c-45.3,0-82.2,36.9-82.2,82.2v765.6c0,45.3,36.9,82.2,82.2,82.2h765.6c45.3,0,82.2-36.9,82.2-82.2V129.2c0-45.3-36.9-82.2-82.2-82.2ZM129.2,74.4h765.6c30.2,0,54.8,24.6,54.8,54.8v127.3H74.4v-127.3c0-30.2,24.6-54.8,54.8-54.8ZM894.8,949.6H129.2c-30.2,0-54.8-24.6-54.8-54.8V283.9h875.2v610.9c0,30.2-24.6,54.8-54.8,54.8Z"/>
  <path class="st0" d="M165.5,218.1c29.1,0,52.6-23.6,52.6-52.6s-23.6-52.6-52.6-52.6-52.6,23.6-52.6,52.6,23.6,52.6,52.6,52.6ZM165.5,140.2c13.9,0,25.3,11.4,25.3,25.2s-11.3,25.2-25.3,25.2-25.3-11.3-25.3-25.2,11.3-25.2,25.3-25.2Z"/>
  <path class="st0" d="M301.7,218.1c29.1,0,52.6-23.6,52.6-52.6s-23.6-52.6-52.6-52.6-52.6,23.6-52.6,52.6,23.6,52.6,52.6,52.6ZM301.7,140.2c13.9,0,25.3,11.4,25.3,25.2s-11.3,25.2-25.3,25.2-25.2-11.4-25.2-25.2,11.3-25.2,25.2-25.2Z"/>
  <path class="st0" d="M437.9,218.1c29,0,52.6-23.6,52.6-52.6s-23.6-52.6-52.6-52.6-52.6,23.6-52.6,52.6c0,29.1,23.6,52.6,52.6,52.6ZM437.9,140.2c13.9,0,25.2,11.4,25.2,25.2s-11.4,25.2-25.2,25.2-25.3-11.4-25.3-25.2,11.3-25.2,25.3-25.2Z"/>
  <path class="st0" d="M449.3,675.9c6.7,3.3,13.8,4.9,20.9,4.9s19.9-3.3,28.2-9.5l137.2-103.8c11.8-8.9,18.6-22.5,18.6-37.4,0-14.7-6.8-28.4-18.6-37.3l-137.2-103.9c-14.3-10.8-33-12.6-49.1-4.6-16,8-25.9,24-25.9,41.9v207.7c0,18,10,34,25.9,42h0ZM450.7,426.3c0-7.5,4-14,10.8-17.3,2.8-1.4,5.8-2.1,8.7-2.1s8.1,1.4,11.6,4l137.2,103.9c4.9,3.7,7.7,9.3,7.7,15.4s-2.8,11.8-7.7,15.5l-137.2,103.8c-6,4.6-13.6,5.2-20.3,1.9-6.7-3.3-10.8-9.8-10.8-17.3v-207.8Z"/>
  <path class="st0" d="M826.9,750.1h-368.4c-11.1-11.4-26.6-18.5-43.7-18.5s-32.6,7.1-43.7,18.5h-174.1c-23.5,0-42.7,19.2-42.7,42.7s19.2,42.7,42.7,42.7h174c11.1,11.4,26.6,18.6,43.8,18.6s32.7-7.2,43.8-18.6h368.3c23.5,0,42.7-19.2,42.7-42.7s-19.2-42.7-42.7-42.7h0ZM197.1,808.1c-8.6,0-15.3-6.7-15.3-15.4s6.9-15.4,15.3-15.4h158.8c-1.3,5-2.2,10.1-2.2,15.4s.9,10.4,2.2,15.3h-158.8ZM414.9,826.7c-18.7,0-33.8-15.2-33.8-33.9s15.2-33.8,33.8-33.8,33.8,15.2,33.8,33.8-15.2,33.9-33.8,33.9ZM826.9,808.1h-353c1.2-4.9,2.2-10,2.2-15.3s-.9-10.4-2.2-15.4h353c8.5,0,15.3,6.9,15.3,15.3s-6.7,15.4-15.3,15.4h0Z"/>
</svg>