<?xml version="1.0" encoding="UTF-8"?>
<svg id="Camada_1" xmlns="http://www.w3.org/2000/svg" version="1.1" viewBox="0 0 100 100">
  <!-- Generator: Adobe Illustrator 29.0.0, SVG Export Plug-In . SVG Version: 2.1.0 Build 186)  -->
  <defs>
    <style>
      .st0 {
        fill: #fff;
      }

      .st1 {
        fill: #dc625c;
      }
    </style>
  </defs>
  <circle class="st1" cx="50" cy="50" r="48.6"/>
  <g>
    <path class="st0" d="M63,19.3h-26c-9.8,0-17.7,7.9-17.7,17.7v26c0,9.8,7.9,17.7,17.7,17.7h26c9.8,0,17.7-7.9,17.7-17.7v-26c0-9.8-7.9-17.7-17.7-17.7ZM75.1,63.4c0,6.5-5.3,11.8-11.8,11.8h-26.6c-6.5,0-11.8-5.3-11.8-11.8v-26.6c0-6.5,5.3-11.8,11.8-11.8h26.6c6.5,0,11.8,5.3,11.8,11.8v26.6Z"/>
    <path class="st0" d="M50,34.2c-8.8,0-15.9,7.1-15.9,15.9s7.1,15.9,15.9,15.9,15.9-7.1,15.9-15.9-7.1-15.9-15.9-15.9ZM50,60.5c-5.7,0-10.3-4.6-10.3-10.3s4.6-10.3,10.3-10.3,10.3,4.6,10.3,10.3-4.6,10.3-10.3,10.3Z"/>
    <circle class="st0" cx="66.5" cy="33.6" r="3.7"/>
  </g>
</svg>