<?xml version="1.0" encoding="UTF-8"?>
<svg id="Camada_1" xmlns="http://www.w3.org/2000/svg" version="1.1" xmlns:xlink="http://www.w3.org/1999/xlink" viewBox="0 0 100 100">
  <!-- Generator: Adobe Illustrator 29.5.0, SVG Export Plug-In . SVG Version: 2.1.0 Build 137)  -->
  <defs>
    <style>
      .st0 {
        fill: url(#Gradiente_sem_nome_701);
      }

      .st0, .st1, .st2, .st3 {
        stroke: #fff;
        stroke-miterlimit: 10;
      }

      .st4 {
        fill: url(#Gradiente_sem_nome_421);
      }

      .st1 {
        fill: url(#Gradiente_sem_nome_702);
      }

      .st5 {
        fill: url(#Gradiente_sem_nome_42);
      }

      .st6 {
        fill: url(#Gradiente_sem_nome_60);
      }

      .st2 {
        fill: url(#Gradiente_sem_nome_70);
      }

      .st3 {
        fill: none;
        stroke-width: .25px;
      }
    </style>
    <radialGradient id="Gradiente_sem_nome_42" data-name="Gradiente sem nome 42" cx="12.06" cy="3.83" fx="12.06" fy="3.83" r="86.73" gradientTransform="translate(7.06 -8.81) rotate(40.98) scale(1 1.64)" gradientUnits="userSpaceOnUse">
      <stop offset="0" stop-color="#fff"/>
      <stop offset=".48" stop-color="#f5f5f5" stop-opacity="0"/>
      <stop offset="1" stop-color="#f5f5f5" stop-opacity="0"/>
    </radialGradient>
    <radialGradient id="Gradiente_sem_nome_421" data-name="Gradiente sem nome 42" cx="102.06" cy="99.05" fx="102.06" fy="99.05" r="112.93" gradientTransform="translate(168.56 -105.2) rotate(46.4) scale(1 1.91)" xlink:href="#Gradiente_sem_nome_42"/>
    <radialGradient id="Gradiente_sem_nome_60" data-name="Gradiente sem nome 60" cx="50.15" cy="49.74" fx="50.15" fy="49.74" r="58.96" gradientUnits="userSpaceOnUse">
      <stop offset="0" stop-color="#fff" stop-opacity=".3"/>
      <stop offset=".66" stop-color="#f5f5f5" stop-opacity="0"/>
      <stop offset="1" stop-color="#f5f5f5"/>
    </radialGradient>
    <radialGradient id="Gradiente_sem_nome_70" data-name="Gradiente sem nome 70" cx="7.56" cy="82.87" fx="7.56" fy="82.87" r="107.36" gradientUnits="userSpaceOnUse">
      <stop offset="0" stop-color="#f5f5f5" stop-opacity=".5"/>
      <stop offset=".85" stop-color="#fff"/>
    </radialGradient>
    <radialGradient id="Gradiente_sem_nome_701" data-name="Gradiente sem nome 70" cy="82.87" fy="82.87" r="107.36" xlink:href="#Gradiente_sem_nome_70"/>
    <radialGradient id="Gradiente_sem_nome_702" data-name="Gradiente sem nome 70" cy="82.87" fy="82.87" r="107.36" xlink:href="#Gradiente_sem_nome_70"/>
  </defs>
  <circle class="st5" cx="50" cy="50" r="48.6"/>
  <circle class="st4" cx="50" cy="50" r="48.6"/>
  <circle class="st6" cx="50" cy="50" r="48.6"/>
  <circle class="st3" cx="50" cy="50" r="48.6"/>
  <g>
    <path class="st2" d="M63.9,39.75c-4.4-.2-8.6,2.1-10.8,6h-.2v-5h-11v36.9h11.4v-18.2c0-4.8.9-9.5,6.9-9.5s6,5.5,6,9.8v17.9h11.4v-20.2c0-9.9-2.1-17.6-13.7-17.6v-.1Z"/>
    <rect class="st0" x="23.2" y="40.65" width="11.5" height="36.9"/>
    <path class="st1" d="M29,22.35c-3.7,0-6.6,3-6.6,6.6s3,6.6,6.6,6.6c1.8,0,3.5-.7,4.7-1.9,1.2-1.2,1.9-2.9,1.9-4.7,0-3.7-3-6.6-6.6-6.6Z"/>
  </g>
</svg>