<?xml version="1.0" encoding="UTF-8"?>
<svg id="Camada_1" xmlns="http://www.w3.org/2000/svg" version="1.1" viewBox="0 0 100 100">
  <!-- Generator: Adobe Illustrator 29.0.0, SVG Export Plug-In . SVG Version: 2.1.0 Build 186)  -->
  <defs>
    <style>
      .st0 {
        fill: #fefefe;
      }
    </style>
  </defs>
  <path class="st0" d="M92.5,80l-18.5-18.6c0-.4,0-.9,0-1.3.2-.8,1.6-2.9,2-3.9,11-24.4-8.2-51.5-34.6-50.2C23.7,7,9.1,20.6,7.3,38.4c-2.7,27.2,24.8,47.9,50.1,36.6,1-.5,3.1-1.8,3.9-2,.4-.1.8-.1,1.3,0,6.8,6.5,13.2,13.4,20.1,19.8,9.6,7,18.3-4.8,9.9-12.7ZM47.8,68.3c-20.1,3.5-36.5-15.9-29.7-35.2,6.5-18.3,30.3-23.6,44-9.8,15.1,15.2,6.8,41.4-14.3,45Z"/>
  <path class="st0" d="M62.4,38.8c-.4.4-1.5,1-2.1,1.1-3.5.5-4.1-2.7-5.6-5-4-6-11.1-8-18-6.2s-1.9.9-3.3.8c-3.3-.3-4.5-4.7-1.8-6.6s7-2.3,9.3-2.4c8.6-.2,17.1,4.6,21.2,12.1,1.1,1.9,2.2,4.3.4,6.2Z"/>
</svg>