<svg xmlns="http://www.w3.org/2000/svg" data-name="Layer 1" viewBox="0 0 100 125" x="0px" y="0px"><path d="M68.77,5.75H31.23A25.51,25.51,0,0,0,5.75,31.23V68.77A25.51,25.51,0,0,0,31.23,94.25H68.77A25.51,25.51,0,0,0,94.25,68.77V31.23A25.51,25.51,0,0,0,68.77,5.75ZM49.53,80.25,9.7,50.44,50,20.19,89.84,50ZM32.79,49.66c0,.34,0,.68,0,1,0,.17,0,.34,0,.51A16.93,16.93,0,0,0,63.5,60.49a15,15,0,0,0,.84-1.29C55.85,50.36,45.24,47.16,32.79,49.66Zm1.62-6.27c-.26.55-.49,1.12-.7,1.7,12.95-3.06,23.87.17,32.45,9.61a14.17,14.17,0,0,0,.33-1.84,15.61,15.61,0,0,0,.15-2.17,16.94,16.94,0,0,0-32.23-7.3Z"/><text x="0" y="115" fill="#000000" font-size="5px" font-weight="bold" font-family="'Helvetica Neue', Helvetica, Arial-Unicode, Arial, Sans-serif">Created by Clouds</text><text x="0" y="120" fill="#000000" font-size="5px" font-weight="bold" font-family="'Helvetica Neue', Helvetica, Arial-Unicode, Arial, Sans-serif">from the Noun Project</text></svg>