<?xml version="1.0" encoding="UTF-8"?>
<svg id="Camada_1" xmlns="http://www.w3.org/2000/svg" version="1.1" xmlns:xlink="http://www.w3.org/1999/xlink" viewBox="0 0 100 100">
  <!-- Generator: Adobe Illustrator 29.5.0, SVG Export Plug-In . SVG Version: 2.1.0 Build 137)  -->
  <defs>
    <style>
      .st0 {
        fill: url(#Gradiente_sem_nome_421);
      }

      .st1 {
        fill: url(#Gradiente_sem_nome_42);
      }

      .st2 {
        fill: #fff;
      }

      .st3 {
        fill: url(#Gradiente_sem_nome_48);
      }

      .st4 {
        fill: url(#Gradiente_sem_nome_60);
      }

      .st5 {
        fill: none;
        stroke: #fff;
        stroke-miterlimit: 10;
        stroke-width: .25px;
      }
    </style>
    <radialGradient id="Gradiente_sem_nome_42" data-name="Gradiente sem nome 42" cx="12.06" cy="3.83" fx="12.06" fy="3.83" r="86.73" gradientTransform="translate(7.06 -8.81) rotate(40.98) scale(1 1.64)" gradientUnits="userSpaceOnUse">
      <stop offset="0" stop-color="#fff"/>
      <stop offset=".48" stop-color="#f5f5f5" stop-opacity="0"/>
      <stop offset="1" stop-color="#f5f5f5" stop-opacity="0"/>
    </radialGradient>
    <radialGradient id="Gradiente_sem_nome_421" data-name="Gradiente sem nome 42" cx="102.06" cy="99.05" fx="102.06" fy="99.05" r="112.93" gradientTransform="translate(168.56 -105.2) rotate(46.4) scale(1 1.91)" xlink:href="#Gradiente_sem_nome_42"/>
    <radialGradient id="Gradiente_sem_nome_60" data-name="Gradiente sem nome 60" cx="50.15" cy="49.74" fx="50.15" fy="49.74" r="58.96" gradientUnits="userSpaceOnUse">
      <stop offset="0" stop-color="#fff" stop-opacity=".3"/>
      <stop offset=".66" stop-color="#f5f5f5" stop-opacity="0"/>
      <stop offset="1" stop-color="#f5f5f5"/>
    </radialGradient>
    <radialGradient id="Gradiente_sem_nome_48" data-name="Gradiente sem nome 48" cx="35.28" cy="64.09" fx="35.28" fy="64.09" r="51.1" gradientUnits="userSpaceOnUse">
      <stop offset=".08" stop-color="#fff"/>
      <stop offset=".77" stop-color="#f5f5f5" stop-opacity=".5"/>
    </radialGradient>
  </defs>
  <circle class="st1" cx="50" cy="50" r="48.6"/>
  <circle class="st0" cx="50" cy="50" r="48.6"/>
  <circle class="st4" cx="50" cy="50" r="48.6"/>
  <circle class="st5" cx="50" cy="50" r="48.6"/>
  <g id="Glyph">
    <g>
      <path class="st3" d="M43.49,52.24l5.43,5.43c.71.73,1.18,1.59,1.42,2.51,16.28-11.41,24.65-23.36,28.86-31.59,1.17-2.27.96-4.6-.54-6.1s-3.82-1.7-6.1-.54c-8.23,4.23-20.18,12.6-31.59,28.86.92.25,1.79.72,2.52,1.43Z"/>
      <path class="st3" d="M46.83,59.62l-5.29-5.29c-1.14-1.14-2.98-1.14-4.13,0l-1.75,1.75c.43.21.83.49,1.18.84l7.39,7.39c.34.34.63.75.84,1.18l1.75-1.75c1.14-1.14,1.13-2.99,0-4.13Z"/>
      <path class="st3" d="M42.63,67.54c.06-.44-.09-.88-.41-1.2l-7.39-7.39c-.26-.26-.61-.42-.97-.42-.3,0-7.32-.1-11.28,4.88-2.69,3.42-3.24,8.23-1.65,14.33.07.25.19.48.36.65.2.2.47.34.76.39.55.1,1.1-.11,1.42-.57.03-.03,2.09-2.84,6.01-3.6,1.05-.2,2.28-.11,3.56-.02,3.59.23,8.5.58,9.6-7.05Z"/>
    </g>
  </g>
  <g id="Glyph1" data-name="Glyph">
    <g>
      <path class="st2" d="M75.46,22.2c.99,0,1.85.34,2.5.99,1.18,1.18,1.32,3.07.35,4.94-3.99,7.81-11.98,19.36-27.5,30.48-.3-.6-.7-1.16-1.18-1.65l-5.44-5.44c-.49-.48-1.05-.87-1.66-1.18,11.11-15.47,22.67-23.49,30.49-27.5.81-.42,1.66-.64,2.44-.64M75.46,21.2c-.93,0-1.92.25-2.89.75-8.23,4.23-20.18,12.6-31.59,28.86.92.25,1.79.72,2.52,1.43l5.43,5.43c.71.73,1.18,1.59,1.42,2.51,16.28-11.41,24.65-23.36,28.86-31.59,1.17-2.27.96-4.6-.54-6.1-.85-.85-1.97-1.28-3.2-1.28h0Z"/>
      <path class="st2" d="M39.48,54.47c.51,0,.99.2,1.36.56l5.29,5.29c.75.75.75,1.96,0,2.71l-.88.88c-.09-.11-.19-.22-.29-.32l-7.39-7.39c-.1-.1-.21-.2-.32-.29l.88-.88c.36-.36.85-.56,1.36-.56M39.48,53.47c-.75,0-1.49.29-2.06.86l-1.75,1.75c.43.21.83.49,1.18.84l7.39,7.39c.34.34.63.75.84,1.18l1.75-1.75c1.14-1.14,1.13-2.99,0-4.13l-5.29-5.29c-.57-.57-1.32-.86-2.06-.86h0Z"/>
      <path class="st2" d="M33.79,59.52h.07c.08,0,.18.05.26.13l7.39,7.39c.07.07.15.19.13.35-.79,5.52-3.6,6.28-6.52,6.28-.67,0-1.34-.04-2.01-.09h-.06c-.72-.06-1.41-.1-2.08-.1-.64,0-1.19.05-1.68.14-3.83.74-6.07,3.3-6.56,3.91l-.03.03-.05.08c-.07.1-.19.16-.32.16-.03,0-.06,0-.1-.01-.11-.02-.18-.07-.22-.12-.04-.04-.08-.12-.1-.19-1.51-5.78-1.01-10.31,1.46-13.46,3.47-4.38,9.73-4.51,10.43-4.51M33.79,58.52c-.78,0-7.41.09-11.21,4.88-2.69,3.42-3.24,8.23-1.65,14.33.07.25.19.48.36.65.2.2.47.34.76.39.09.02.18.02.27.02.45,0,.88-.21,1.15-.59.03-.03,2.09-2.84,6.01-3.6.47-.09.97-.12,1.49-.12.66,0,1.36.05,2.07.1.66.04,1.37.09,2.08.09,3.19,0,6.62-.92,7.51-7.14.06-.44-.09-.88-.41-1.2l-7.39-7.39c-.26-.26-.61-.42-.97-.42-.01,0-.03,0-.07,0h0Z"/>
    </g>
  </g>
</svg>