<?xml version="1.0" encoding="UTF-8"?>
<svg id="Camada_1" xmlns="http://www.w3.org/2000/svg" version="1.1" viewBox="0 0 100 100">
  <!-- Generator: Adobe Illustrator 29.0.0, SVG Export Plug-In . SVG Version: 2.1.0 Build 186)  -->
  <defs>
    <style>
      .st0 {
        fill: #d26969;
      }

      .st1 {
        fill: #f9f9f9;
      }
    </style>
  </defs>
  <circle class="st0" cx="50" cy="50" r="48.6"/>
  <path class="st1" d="M39.7,21.2c-.9,0-1.6.7-1.6,1.6v4.7h23.8v-4.7c0-.9-.7-1.6-1.6-1.6h-20.7ZM24.6,29.1c-4,0-7.2,3.2-7.2,7.2v7.8c7.3,3.9,17.1,6.6,28.1,7.2.7-1.8,2.4-3,4.5-3s3.8,1.3,4.5,3c11-.5,20.8-3.2,28.1-7.2v-7.8c0-4-3.2-7.2-7.2-7.2,0,0-50.8,0-50.8,0ZM17.4,47.6v22c0,4,3.2,7.2,7.2,7.2h50.8c4,0,7.2-3.2,7.2-7.2v-22c-7.6,3.8-17.3,6.2-28,6.8-.6,1.9-2.4,3.3-4.5,3.3s-3.9-1.4-4.5-3.3c-10.7-.5-20.4-3-28-6.8Z"/>
</svg>