<?xml version="1.0" encoding="UTF-8"?>
<svg id="Camada_1" xmlns="http://www.w3.org/2000/svg" version="1.1" viewBox="0 0 100 63.3">
  <!-- Generator: Adobe Illustrator 29.5.1, SVG Export Plug-In . SVG Version: 2.1.0 Build 141)  -->
  <defs>
    <style>
      .st0 {
        fill: #edf3ff;
      }
    </style>
  </defs>
  <path class="st0" d="M35.9,26c-.2.5-.4,1-.6,1.5,11.7-2.8,21.6.2,29.3,8.7.1-.5.2-1.1.3-1.7,0-.6.1-1.3.1-2,0-8.4-6.8-15.3-15.3-15.3-5.9,0-11.3,3.4-13.8,8.7,0,0,0,.1,0,.1Z"/>
  <path class="st0" d="M34.5,31.7v1.4c.3,8.4,7.3,15.1,15.7,14.8,4.8-.1,9.2-2.5,12-6.4.3-.4.5-.8.8-1.2-7.7-8-17.2-10.9-28.5-8.6Z"/>
  <path class="st0" d="M2.5,2.8v58.4h95V2.8H2.5ZM49.6,59.3L13.6,32.4,50,5.1l36,26.9-36.4,27.3Z"/>
</svg>