<?xml version="1.0" encoding="UTF-8"?>
<svg id="Camada_1" xmlns="http://www.w3.org/2000/svg" version="1.1" xmlns:xlink="http://www.w3.org/1999/xlink" viewBox="0 0 100 100">
  <!-- Generator: Adobe Illustrator 29.5.1, SVG Export Plug-In . SVG Version: 2.1.0 Build 141)  -->
  <defs>
    <style>
      .st0 {
        fill: url(#Gradiente_sem_nome_421);
      }

      .st1 {
        fill: url(#Gradiente_sem_nome_42);
      }

      .st2 {
        fill: url(#Gradiente_sem_nome_60);
      }

      .st3 {
        fill: url(#Gradiente_sem_nome_70);
      }

      .st3, .st4 {
        stroke: #fff;
        stroke-miterlimit: 10;
      }

      .st4 {
        fill: none;
        stroke-width: .25px;
      }
    </style>
    <radialGradient id="Gradiente_sem_nome_42" data-name="Gradiente sem nome 42" cx="12.06" cy="3.83" fx="12.06" fy="3.83" r="86.73" gradientTransform="translate(7.06 -8.81) rotate(40.98) scale(1 1.64)" gradientUnits="userSpaceOnUse">
      <stop offset="0" stop-color="#fff"/>
      <stop offset=".48" stop-color="#f5f5f5" stop-opacity="0"/>
      <stop offset="1" stop-color="#f5f5f5" stop-opacity="0"/>
    </radialGradient>
    <radialGradient id="Gradiente_sem_nome_421" data-name="Gradiente sem nome 42" cx="102.06" cy="99.05" fx="102.06" fy="99.05" r="112.93" gradientTransform="translate(168.56 -105.2) rotate(46.4) scale(1 1.91)" xlink:href="#Gradiente_sem_nome_42"/>
    <radialGradient id="Gradiente_sem_nome_60" data-name="Gradiente sem nome 60" cx="50.15" cy="49.74" fx="50.15" fy="49.74" r="58.96" gradientUnits="userSpaceOnUse">
      <stop offset="0" stop-color="#fff" stop-opacity=".3"/>
      <stop offset=".66" stop-color="#f5f5f5" stop-opacity="0"/>
      <stop offset="1" stop-color="#f5f5f5"/>
    </radialGradient>
    <radialGradient id="Gradiente_sem_nome_70" data-name="Gradiente sem nome 70" cx="95.93" cy="407.7" fx="95.93" fy="407.7" r="27.64" gradientTransform="translate(60.18 -368.71) rotate(14.63)" gradientUnits="userSpaceOnUse">
      <stop offset="0" stop-color="#f5f5f5" stop-opacity=".5"/>
      <stop offset=".85" stop-color="#fff"/>
    </radialGradient>
  </defs>
  <circle class="st1" cx="50" cy="50" r="48.6"/>
  <circle class="st0" cx="50" cy="50" r="48.6"/>
  <circle class="st2" cx="50" cy="50" r="48.6"/>
  <circle class="st4" cx="50" cy="50" r="48.6"/>
  <path class="st3" d="M41.63,19.24l1.3,1.14c1.74,2.72,3.92,5.83,5.33,8.73,2.29,4.73-2.03,7.21-3.78,10.93-.39.84-.23,2.88-.14,3.85.66,6.89,4.98,12.81,11.26,15.71,4.3.26,8.79-2.14,11.76,2.13,1.1,1.58,4.69,7.53,5.09,9.14.08.32.1.66.13.99.02.18-.13.37.18.38l-.65,2.51c-.27-.14-.24.1-.34.24-1.79,2.52-6.71,4.44-9.41,6.01l-1.69.36-3.03-.79c.14-.31-.11-.23-.31-.3-20.72-7.29-33.59-29.79-30.18-51.35.03-.2.24-.39-.11-.42l.85-3.24.93-1.06c2.31-1.58,5.02-3.4,7.51-4.7.86-.45,1.65-.64,2.6-.7.19-.01.38.18.39-.15l2.3.6Z"/>
</svg>